<mxfile host="65bd71144e">
    <diagram id="HVPx8Y5HRNKZ4fJCoHhl" name="Page-1">
        <mxGraphModel dx="909" dy="1060" grid="1" gridSize="10" guides="1" tooltips="1" connect="1" arrows="1" fold="1" page="1" pageScale="1" pageWidth="850" pageHeight="1100" math="0" shadow="0">
            <root>
                <mxCell id="0"/>
                <mxCell id="1" parent="0"/>
                <mxCell id="2" value="" style="shape=cube;whiteSpace=wrap;html=1;boundedLbl=1;backgroundOutline=1;darkOpacity=0.05;darkOpacity2=0.1;strokeColor=default;strokeWidth=3;fillColor=#67AB9F;size=11;fontStyle=1" parent="1" vertex="1">
                    <mxGeometry x="225.66000000000008" y="683.9399999999998" width="29.5" height="30.82" as="geometry"/>
                </mxCell>
                <mxCell id="3" value="" style="shape=cube;whiteSpace=wrap;html=1;boundedLbl=1;backgroundOutline=1;darkOpacity=0.05;darkOpacity2=0.1;strokeColor=default;strokeWidth=3;fillColor=#67AB9F;size=11;fontStyle=1" parent="1" vertex="1">
                    <mxGeometry x="206.0000000000001" y="683.9399999999998" width="29.5" height="30.82" as="geometry"/>
                </mxCell>
                <mxCell id="4" value="" style="shape=cube;whiteSpace=wrap;html=1;boundedLbl=1;backgroundOutline=1;darkOpacity=0.05;darkOpacity2=0.1;strokeColor=default;strokeWidth=3;fillColor=#67AB9F;size=11;fontStyle=1" parent="1" vertex="1">
                    <mxGeometry x="225.70000000000005" y="663.9299999999998" width="29.5" height="30.82" as="geometry"/>
                </mxCell>
                <mxCell id="5" value="" style="shape=cube;whiteSpace=wrap;html=1;boundedLbl=1;backgroundOutline=1;darkOpacity=0.05;darkOpacity2=0.1;strokeColor=default;strokeWidth=3;fillColor=#67AB9F;size=11;fontStyle=1" parent="1" vertex="1">
                    <mxGeometry x="206.0000000000001" y="663.9299999999998" width="29.5" height="30.82" as="geometry"/>
                </mxCell>
                <mxCell id="6" value="" style="shape=cube;whiteSpace=wrap;html=1;boundedLbl=1;backgroundOutline=1;darkOpacity=0.05;darkOpacity2=0.1;strokeColor=default;strokeWidth=3;fillColor=#67AB9F;size=11;fontStyle=1" parent="1" vertex="1">
                    <mxGeometry x="235.66000000000008" y="693.9399999999998" width="29.5" height="30.82" as="geometry"/>
                </mxCell>
                <mxCell id="7" value="" style="shape=cube;whiteSpace=wrap;html=1;boundedLbl=1;backgroundOutline=1;darkOpacity=0.05;darkOpacity2=0.1;strokeColor=default;strokeWidth=3;fillColor=#67AB9F;size=11;fontStyle=1" parent="1" vertex="1">
                    <mxGeometry x="216.0000000000001" y="693.9399999999998" width="29.5" height="30.82" as="geometry"/>
                </mxCell>
                <mxCell id="8" value="" style="shape=cube;whiteSpace=wrap;html=1;boundedLbl=1;backgroundOutline=1;darkOpacity=0.05;darkOpacity2=0.1;strokeColor=default;strokeWidth=3;fillColor=#67AB9F;size=11;fontStyle=1" parent="1" vertex="1">
                    <mxGeometry x="235.70000000000005" y="673.9299999999998" width="29.5" height="30.82" as="geometry"/>
                </mxCell>
                <mxCell id="9" value="" style="shape=cube;whiteSpace=wrap;html=1;boundedLbl=1;backgroundOutline=1;darkOpacity=0.05;darkOpacity2=0.1;strokeColor=default;strokeWidth=3;fillColor=#67AB9F;size=11;fontStyle=1" parent="1" vertex="1">
                    <mxGeometry x="216.0000000000001" y="673.9299999999998" width="29.5" height="30.82" as="geometry"/>
                </mxCell>
                <mxCell id="10" value="" style="shape=table;html=1;whiteSpace=wrap;startSize=0;container=1;collapsible=0;childLayout=tableLayout;strokeWidth=1;fontStyle=1;fillColor=#E6E6E6;" parent="1" vertex="1">
                    <mxGeometry x="213" y="345" width="440" height="228" as="geometry"/>
                </mxCell>
                <mxCell id="11" style="shape=partialRectangle;html=1;whiteSpace=wrap;collapsible=0;dropTarget=0;pointerEvents=0;fillColor=#E6E6E6;top=0;left=0;bottom=0;right=0;points=[[0,0.5],[1,0.5]];portConstraint=eastwest;strokeWidth=1;fontStyle=1" parent="10" vertex="1">
                    <mxGeometry width="440" height="29" as="geometry"/>
                </mxCell>
                <mxCell id="12" value="0" style="shape=partialRectangle;html=1;whiteSpace=wrap;connectable=0;fillColor=#E6E6E6;top=0;left=0;bottom=0;right=0;overflow=hidden;pointerEvents=1;strokeWidth=1;strokeColor=#CCFF99;fontStyle=1" parent="11" vertex="1">
                    <mxGeometry width="29" height="29" as="geometry">
                        <mxRectangle width="29" height="29" as="alternateBounds"/>
                    </mxGeometry>
                </mxCell>
                <mxCell id="13" value="1" style="shape=partialRectangle;html=1;whiteSpace=wrap;connectable=0;fillColor=#E6E6E6;top=0;left=0;bottom=0;right=0;overflow=hidden;pointerEvents=1;strokeWidth=1;fontStyle=1" parent="11" vertex="1">
                    <mxGeometry x="29" width="26" height="29" as="geometry">
                        <mxRectangle width="26" height="29" as="alternateBounds"/>
                    </mxGeometry>
                </mxCell>
                <mxCell id="14" value="2" style="shape=partialRectangle;html=1;whiteSpace=wrap;connectable=0;fillColor=#E6E6E6;top=0;left=0;bottom=0;right=0;overflow=hidden;pointerEvents=1;strokeWidth=1;fontStyle=1" parent="11" vertex="1">
                    <mxGeometry x="55" width="27" height="29" as="geometry">
                        <mxRectangle width="27" height="29" as="alternateBounds"/>
                    </mxGeometry>
                </mxCell>
                <mxCell id="15" value="3" style="shape=partialRectangle;html=1;whiteSpace=wrap;connectable=0;fillColor=#E6E6E6;top=0;left=0;bottom=0;right=0;overflow=hidden;pointerEvents=1;strokeWidth=1;fontStyle=1" parent="11" vertex="1">
                    <mxGeometry x="82" width="29" height="29" as="geometry">
                        <mxRectangle width="29" height="29" as="alternateBounds"/>
                    </mxGeometry>
                </mxCell>
                <mxCell id="16" value="4" style="shape=partialRectangle;html=1;whiteSpace=wrap;connectable=0;fillColor=#E6E6E6;top=0;left=0;bottom=0;right=0;overflow=hidden;pointerEvents=1;strokeWidth=1;fontStyle=1" parent="11" vertex="1">
                    <mxGeometry x="111" width="27" height="29" as="geometry">
                        <mxRectangle width="27" height="29" as="alternateBounds"/>
                    </mxGeometry>
                </mxCell>
                <mxCell id="17" value="5" style="shape=partialRectangle;html=1;whiteSpace=wrap;connectable=0;fillColor=#E6E6E6;top=0;left=0;bottom=0;right=0;overflow=hidden;pointerEvents=1;strokeWidth=1;fontStyle=1" parent="11" vertex="1">
                    <mxGeometry x="138" width="27" height="29" as="geometry">
                        <mxRectangle width="27" height="29" as="alternateBounds"/>
                    </mxGeometry>
                </mxCell>
                <mxCell id="18" value="6" style="shape=partialRectangle;html=1;whiteSpace=wrap;connectable=0;fillColor=#E6E6E6;top=0;left=0;bottom=0;right=0;overflow=hidden;pointerEvents=1;strokeWidth=1;fontStyle=1" parent="11" vertex="1">
                    <mxGeometry x="165" width="26" height="29" as="geometry">
                        <mxRectangle width="26" height="29" as="alternateBounds"/>
                    </mxGeometry>
                </mxCell>
                <mxCell id="19" value="7" style="shape=partialRectangle;html=1;whiteSpace=wrap;connectable=0;fillColor=#E6E6E6;top=0;left=0;bottom=0;right=0;overflow=hidden;pointerEvents=1;strokeWidth=1;fontStyle=1" parent="11" vertex="1">
                    <mxGeometry x="191" width="29" height="29" as="geometry">
                        <mxRectangle width="29" height="29" as="alternateBounds"/>
                    </mxGeometry>
                </mxCell>
                <mxCell id="20" value="8" style="shape=partialRectangle;html=1;whiteSpace=wrap;connectable=0;fillColor=#E6E6E6;top=0;left=0;bottom=0;right=0;overflow=hidden;pointerEvents=1;strokeWidth=1;fontStyle=1" parent="11" vertex="1">
                    <mxGeometry x="220" width="29" height="29" as="geometry">
                        <mxRectangle width="29" height="29" as="alternateBounds"/>
                    </mxGeometry>
                </mxCell>
                <mxCell id="21" value="9" style="shape=partialRectangle;html=1;whiteSpace=wrap;connectable=0;fillColor=#E6E6E6;top=0;left=0;bottom=0;right=0;overflow=hidden;pointerEvents=1;strokeWidth=1;fontStyle=1" parent="11" vertex="1">
                    <mxGeometry x="249" width="26" height="29" as="geometry">
                        <mxRectangle width="26" height="29" as="alternateBounds"/>
                    </mxGeometry>
                </mxCell>
                <mxCell id="22" value="10" style="shape=partialRectangle;html=1;whiteSpace=wrap;connectable=0;fillColor=#E6E6E6;top=0;left=0;bottom=0;right=0;overflow=hidden;pointerEvents=1;strokeWidth=1;fontStyle=1" parent="11" vertex="1">
                    <mxGeometry x="275" width="27" height="29" as="geometry">
                        <mxRectangle width="27" height="29" as="alternateBounds"/>
                    </mxGeometry>
                </mxCell>
                <mxCell id="23" value="11" style="shape=partialRectangle;html=1;whiteSpace=wrap;connectable=0;fillColor=#E6E6E6;top=0;left=0;bottom=0;right=0;overflow=hidden;pointerEvents=1;strokeWidth=1;fontStyle=1" parent="11" vertex="1">
                    <mxGeometry x="302" width="29" height="29" as="geometry">
                        <mxRectangle width="29" height="29" as="alternateBounds"/>
                    </mxGeometry>
                </mxCell>
                <mxCell id="24" value="0" style="shape=partialRectangle;html=1;whiteSpace=wrap;connectable=0;fillColor=#E6E6E6;top=0;left=0;bottom=0;right=0;overflow=hidden;pointerEvents=1;strokeWidth=1;fontStyle=1" parent="11" vertex="1">
                    <mxGeometry x="331" width="27" height="29" as="geometry">
                        <mxRectangle width="27" height="29" as="alternateBounds"/>
                    </mxGeometry>
                </mxCell>
                <mxCell id="25" value="0" style="shape=partialRectangle;html=1;whiteSpace=wrap;connectable=0;fillColor=#E6E6E6;top=0;left=0;bottom=0;right=0;overflow=hidden;pointerEvents=1;strokeWidth=1;fontStyle=1" parent="11" vertex="1">
                    <mxGeometry x="358" width="27" height="29" as="geometry">
                        <mxRectangle width="27" height="29" as="alternateBounds"/>
                    </mxGeometry>
                </mxCell>
                <mxCell id="26" value="0" style="shape=partialRectangle;html=1;whiteSpace=wrap;connectable=0;fillColor=#E6E6E6;top=0;left=0;bottom=0;right=0;overflow=hidden;pointerEvents=1;strokeWidth=1;fontStyle=1" parent="11" vertex="1">
                    <mxGeometry x="385" width="26" height="29" as="geometry">
                        <mxRectangle width="26" height="29" as="alternateBounds"/>
                    </mxGeometry>
                </mxCell>
                <mxCell id="27" value="0" style="shape=partialRectangle;html=1;whiteSpace=wrap;connectable=0;fillColor=#E6E6E6;top=0;left=0;bottom=0;right=0;overflow=hidden;pointerEvents=1;strokeWidth=1;fontStyle=1" parent="11" vertex="1">
                    <mxGeometry x="411" width="29" height="29" as="geometry">
                        <mxRectangle width="29" height="29" as="alternateBounds"/>
                    </mxGeometry>
                </mxCell>
                <mxCell id="28" style="shape=partialRectangle;html=1;whiteSpace=wrap;collapsible=0;dropTarget=0;pointerEvents=0;fillColor=#E6E6E6;top=0;left=0;bottom=0;right=0;points=[[0,0.5],[1,0.5]];portConstraint=eastwest;strokeWidth=1;fontStyle=1" parent="10" vertex="1">
                    <mxGeometry y="29" width="440" height="28" as="geometry"/>
                </mxCell>
                <mxCell id="29" value="12" style="shape=partialRectangle;html=1;whiteSpace=wrap;connectable=0;fillColor=#E6E6E6;top=0;left=0;bottom=0;right=0;overflow=hidden;pointerEvents=1;strokeWidth=1;fontStyle=1" parent="28" vertex="1">
                    <mxGeometry width="29" height="28" as="geometry">
                        <mxRectangle width="29" height="28" as="alternateBounds"/>
                    </mxGeometry>
                </mxCell>
                <mxCell id="30" value="13" style="shape=partialRectangle;html=1;whiteSpace=wrap;connectable=0;fillColor=#E6E6E6;top=0;left=0;bottom=0;right=0;overflow=hidden;pointerEvents=1;strokeWidth=1;fontStyle=1" parent="28" vertex="1">
                    <mxGeometry x="29" width="26" height="28" as="geometry">
                        <mxRectangle width="26" height="28" as="alternateBounds"/>
                    </mxGeometry>
                </mxCell>
                <mxCell id="31" value="14" style="shape=partialRectangle;html=1;whiteSpace=wrap;connectable=0;fillColor=#E6E6E6;top=0;left=0;bottom=0;right=0;overflow=hidden;pointerEvents=1;strokeWidth=1;fontStyle=1" parent="28" vertex="1">
                    <mxGeometry x="55" width="27" height="28" as="geometry">
                        <mxRectangle width="27" height="28" as="alternateBounds"/>
                    </mxGeometry>
                </mxCell>
                <mxCell id="32" value="15" style="shape=partialRectangle;html=1;whiteSpace=wrap;connectable=0;fillColor=#E6E6E6;top=0;left=0;bottom=0;right=0;overflow=hidden;pointerEvents=1;strokeWidth=1;fontStyle=1" parent="28" vertex="1">
                    <mxGeometry x="82" width="29" height="28" as="geometry">
                        <mxRectangle width="29" height="28" as="alternateBounds"/>
                    </mxGeometry>
                </mxCell>
                <mxCell id="33" value="16" style="shape=partialRectangle;html=1;whiteSpace=wrap;connectable=0;fillColor=#E6E6E6;top=0;left=0;bottom=0;right=0;overflow=hidden;pointerEvents=1;strokeWidth=1;fontStyle=1" parent="28" vertex="1">
                    <mxGeometry x="111" width="27" height="28" as="geometry">
                        <mxRectangle width="27" height="28" as="alternateBounds"/>
                    </mxGeometry>
                </mxCell>
                <mxCell id="34" value="17" style="shape=partialRectangle;html=1;whiteSpace=wrap;connectable=0;fillColor=#E6E6E6;top=0;left=0;bottom=0;right=0;overflow=hidden;pointerEvents=1;strokeWidth=1;fontStyle=1" parent="28" vertex="1">
                    <mxGeometry x="138" width="27" height="28" as="geometry">
                        <mxRectangle width="27" height="28" as="alternateBounds"/>
                    </mxGeometry>
                </mxCell>
                <mxCell id="35" value="18" style="shape=partialRectangle;html=1;whiteSpace=wrap;connectable=0;fillColor=#E6E6E6;top=0;left=0;bottom=0;right=0;overflow=hidden;pointerEvents=1;strokeWidth=1;fontStyle=1" parent="28" vertex="1">
                    <mxGeometry x="165" width="26" height="28" as="geometry">
                        <mxRectangle width="26" height="28" as="alternateBounds"/>
                    </mxGeometry>
                </mxCell>
                <mxCell id="36" value="19" style="shape=partialRectangle;html=1;whiteSpace=wrap;connectable=0;fillColor=#E6E6E6;top=0;left=0;bottom=0;right=0;overflow=hidden;pointerEvents=1;strokeWidth=1;fontStyle=1" parent="28" vertex="1">
                    <mxGeometry x="191" width="29" height="28" as="geometry">
                        <mxRectangle width="29" height="28" as="alternateBounds"/>
                    </mxGeometry>
                </mxCell>
                <mxCell id="37" value="20" style="shape=partialRectangle;html=1;whiteSpace=wrap;connectable=0;fillColor=#E6E6E6;top=0;left=0;bottom=0;right=0;overflow=hidden;pointerEvents=1;strokeWidth=1;fontStyle=1" parent="28" vertex="1">
                    <mxGeometry x="220" width="29" height="28" as="geometry">
                        <mxRectangle width="29" height="28" as="alternateBounds"/>
                    </mxGeometry>
                </mxCell>
                <mxCell id="38" value="21" style="shape=partialRectangle;html=1;whiteSpace=wrap;connectable=0;fillColor=#E6E6E6;top=0;left=0;bottom=0;right=0;overflow=hidden;pointerEvents=1;strokeWidth=1;fontStyle=1" parent="28" vertex="1">
                    <mxGeometry x="249" width="26" height="28" as="geometry">
                        <mxRectangle width="26" height="28" as="alternateBounds"/>
                    </mxGeometry>
                </mxCell>
                <mxCell id="39" value="22" style="shape=partialRectangle;html=1;whiteSpace=wrap;connectable=0;fillColor=#E6E6E6;top=0;left=0;bottom=0;right=0;overflow=hidden;pointerEvents=1;strokeWidth=1;fontStyle=1" parent="28" vertex="1">
                    <mxGeometry x="275" width="27" height="28" as="geometry">
                        <mxRectangle width="27" height="28" as="alternateBounds"/>
                    </mxGeometry>
                </mxCell>
                <mxCell id="40" value="23" style="shape=partialRectangle;html=1;whiteSpace=wrap;connectable=0;fillColor=#E6E6E6;top=0;left=0;bottom=0;right=0;overflow=hidden;pointerEvents=1;strokeWidth=1;fontStyle=1" parent="28" vertex="1">
                    <mxGeometry x="302" width="29" height="28" as="geometry">
                        <mxRectangle width="29" height="28" as="alternateBounds"/>
                    </mxGeometry>
                </mxCell>
                <mxCell id="41" value="0" style="shape=partialRectangle;html=1;whiteSpace=wrap;connectable=0;fillColor=#E6E6E6;top=0;left=0;bottom=0;right=0;overflow=hidden;pointerEvents=1;strokeWidth=1;fontStyle=1" parent="28" vertex="1">
                    <mxGeometry x="331" width="27" height="28" as="geometry">
                        <mxRectangle width="27" height="28" as="alternateBounds"/>
                    </mxGeometry>
                </mxCell>
                <mxCell id="42" value="0" style="shape=partialRectangle;html=1;whiteSpace=wrap;connectable=0;fillColor=#E6E6E6;top=0;left=0;bottom=0;right=0;overflow=hidden;pointerEvents=1;strokeWidth=1;fontStyle=1" parent="28" vertex="1">
                    <mxGeometry x="358" width="27" height="28" as="geometry">
                        <mxRectangle width="27" height="28" as="alternateBounds"/>
                    </mxGeometry>
                </mxCell>
                <mxCell id="43" value="0" style="shape=partialRectangle;html=1;whiteSpace=wrap;connectable=0;fillColor=#E6E6E6;top=0;left=0;bottom=0;right=0;overflow=hidden;pointerEvents=1;strokeWidth=1;fontStyle=1" parent="28" vertex="1">
                    <mxGeometry x="385" width="26" height="28" as="geometry">
                        <mxRectangle width="26" height="28" as="alternateBounds"/>
                    </mxGeometry>
                </mxCell>
                <mxCell id="44" value="0" style="shape=partialRectangle;html=1;whiteSpace=wrap;connectable=0;fillColor=#E6E6E6;top=0;left=0;bottom=0;right=0;overflow=hidden;pointerEvents=1;strokeWidth=1;fontStyle=1" parent="28" vertex="1">
                    <mxGeometry x="411" width="29" height="28" as="geometry">
                        <mxRectangle width="29" height="28" as="alternateBounds"/>
                    </mxGeometry>
                </mxCell>
                <mxCell id="45" style="shape=partialRectangle;html=1;whiteSpace=wrap;collapsible=0;dropTarget=0;pointerEvents=0;fillColor=#E6E6E6;top=0;left=0;bottom=0;right=0;points=[[0,0.5],[1,0.5]];portConstraint=eastwest;strokeWidth=1;fontStyle=1" parent="10" vertex="1">
                    <mxGeometry y="57" width="440" height="29" as="geometry"/>
                </mxCell>
                <mxCell id="46" value="24" style="shape=partialRectangle;html=1;whiteSpace=wrap;connectable=0;fillColor=#E6E6E6;top=0;left=0;bottom=0;right=0;overflow=hidden;pointerEvents=1;strokeWidth=1;fontStyle=1" parent="45" vertex="1">
                    <mxGeometry width="29" height="29" as="geometry">
                        <mxRectangle width="29" height="29" as="alternateBounds"/>
                    </mxGeometry>
                </mxCell>
                <mxCell id="47" value="25" style="shape=partialRectangle;html=1;whiteSpace=wrap;connectable=0;fillColor=#E6E6E6;top=0;left=0;bottom=0;right=0;overflow=hidden;pointerEvents=1;strokeWidth=1;fontStyle=1" parent="45" vertex="1">
                    <mxGeometry x="29" width="26" height="29" as="geometry">
                        <mxRectangle width="26" height="29" as="alternateBounds"/>
                    </mxGeometry>
                </mxCell>
                <mxCell id="48" value="26" style="shape=partialRectangle;html=1;whiteSpace=wrap;connectable=0;fillColor=#E6E6E6;top=0;left=0;bottom=0;right=0;overflow=hidden;pointerEvents=1;strokeWidth=1;fontStyle=1" parent="45" vertex="1">
                    <mxGeometry x="55" width="27" height="29" as="geometry">
                        <mxRectangle width="27" height="29" as="alternateBounds"/>
                    </mxGeometry>
                </mxCell>
                <mxCell id="49" value="27" style="shape=partialRectangle;html=1;whiteSpace=wrap;connectable=0;fillColor=#E6E6E6;top=0;left=0;bottom=0;right=0;overflow=hidden;pointerEvents=1;strokeWidth=1;fontStyle=1" parent="45" vertex="1">
                    <mxGeometry x="82" width="29" height="29" as="geometry">
                        <mxRectangle width="29" height="29" as="alternateBounds"/>
                    </mxGeometry>
                </mxCell>
                <mxCell id="50" value="28" style="shape=partialRectangle;html=1;whiteSpace=wrap;connectable=0;fillColor=#E6E6E6;top=0;left=0;bottom=0;right=0;overflow=hidden;pointerEvents=1;strokeWidth=1;fontStyle=1" parent="45" vertex="1">
                    <mxGeometry x="111" width="27" height="29" as="geometry">
                        <mxRectangle width="27" height="29" as="alternateBounds"/>
                    </mxGeometry>
                </mxCell>
                <mxCell id="51" value="29" style="shape=partialRectangle;html=1;whiteSpace=wrap;connectable=0;fillColor=#E6E6E6;top=0;left=0;bottom=0;right=0;overflow=hidden;pointerEvents=1;strokeWidth=1;fontStyle=1" parent="45" vertex="1">
                    <mxGeometry x="138" width="27" height="29" as="geometry">
                        <mxRectangle width="27" height="29" as="alternateBounds"/>
                    </mxGeometry>
                </mxCell>
                <mxCell id="52" value="30" style="shape=partialRectangle;html=1;whiteSpace=wrap;connectable=0;fillColor=#E6E6E6;top=0;left=0;bottom=0;right=0;overflow=hidden;pointerEvents=1;strokeWidth=1;fontStyle=1" parent="45" vertex="1">
                    <mxGeometry x="165" width="26" height="29" as="geometry">
                        <mxRectangle width="26" height="29" as="alternateBounds"/>
                    </mxGeometry>
                </mxCell>
                <mxCell id="53" value="31" style="shape=partialRectangle;html=1;whiteSpace=wrap;connectable=0;fillColor=#E6E6E6;top=0;left=0;bottom=0;right=0;overflow=hidden;pointerEvents=1;strokeWidth=1;fontStyle=1" parent="45" vertex="1">
                    <mxGeometry x="191" width="29" height="29" as="geometry">
                        <mxRectangle width="29" height="29" as="alternateBounds"/>
                    </mxGeometry>
                </mxCell>
                <mxCell id="54" value="32" style="shape=partialRectangle;html=1;whiteSpace=wrap;connectable=0;fillColor=#E6E6E6;top=0;left=0;bottom=0;right=0;overflow=hidden;pointerEvents=1;strokeWidth=1;fontStyle=1" parent="45" vertex="1">
                    <mxGeometry x="220" width="29" height="29" as="geometry">
                        <mxRectangle width="29" height="29" as="alternateBounds"/>
                    </mxGeometry>
                </mxCell>
                <mxCell id="55" value="33" style="shape=partialRectangle;html=1;whiteSpace=wrap;connectable=0;fillColor=#E6E6E6;top=0;left=0;bottom=0;right=0;overflow=hidden;pointerEvents=1;strokeWidth=1;fontStyle=1" parent="45" vertex="1">
                    <mxGeometry x="249" width="26" height="29" as="geometry">
                        <mxRectangle width="26" height="29" as="alternateBounds"/>
                    </mxGeometry>
                </mxCell>
                <mxCell id="56" value="34" style="shape=partialRectangle;html=1;whiteSpace=wrap;connectable=0;fillColor=#E6E6E6;top=0;left=0;bottom=0;right=0;overflow=hidden;pointerEvents=1;strokeWidth=1;fontStyle=1" parent="45" vertex="1">
                    <mxGeometry x="275" width="27" height="29" as="geometry">
                        <mxRectangle width="27" height="29" as="alternateBounds"/>
                    </mxGeometry>
                </mxCell>
                <mxCell id="57" value="35" style="shape=partialRectangle;html=1;whiteSpace=wrap;connectable=0;fillColor=#E6E6E6;top=0;left=0;bottom=0;right=0;overflow=hidden;pointerEvents=1;strokeWidth=1;fontStyle=1" parent="45" vertex="1">
                    <mxGeometry x="302" width="29" height="29" as="geometry">
                        <mxRectangle width="29" height="29" as="alternateBounds"/>
                    </mxGeometry>
                </mxCell>
                <mxCell id="58" value="0" style="shape=partialRectangle;html=1;whiteSpace=wrap;connectable=0;fillColor=#E6E6E6;top=0;left=0;bottom=0;right=0;overflow=hidden;pointerEvents=1;strokeWidth=1;fontStyle=1" parent="45" vertex="1">
                    <mxGeometry x="331" width="27" height="29" as="geometry">
                        <mxRectangle width="27" height="29" as="alternateBounds"/>
                    </mxGeometry>
                </mxCell>
                <mxCell id="59" value="0" style="shape=partialRectangle;html=1;whiteSpace=wrap;connectable=0;fillColor=#E6E6E6;top=0;left=0;bottom=0;right=0;overflow=hidden;pointerEvents=1;strokeWidth=1;fontStyle=1" parent="45" vertex="1">
                    <mxGeometry x="358" width="27" height="29" as="geometry">
                        <mxRectangle width="27" height="29" as="alternateBounds"/>
                    </mxGeometry>
                </mxCell>
                <mxCell id="60" value="0" style="shape=partialRectangle;html=1;whiteSpace=wrap;connectable=0;fillColor=#E6E6E6;top=0;left=0;bottom=0;right=0;overflow=hidden;pointerEvents=1;strokeWidth=1;fontStyle=1" parent="45" vertex="1">
                    <mxGeometry x="385" width="26" height="29" as="geometry">
                        <mxRectangle width="26" height="29" as="alternateBounds"/>
                    </mxGeometry>
                </mxCell>
                <mxCell id="61" value="0" style="shape=partialRectangle;html=1;whiteSpace=wrap;connectable=0;fillColor=#E6E6E6;top=0;left=0;bottom=0;right=0;overflow=hidden;pointerEvents=1;strokeWidth=1;fontStyle=1" parent="45" vertex="1">
                    <mxGeometry x="411" width="29" height="29" as="geometry">
                        <mxRectangle width="29" height="29" as="alternateBounds"/>
                    </mxGeometry>
                </mxCell>
                <mxCell id="62" style="shape=partialRectangle;html=1;whiteSpace=wrap;collapsible=0;dropTarget=0;pointerEvents=0;fillColor=#E6E6E6;top=0;left=0;bottom=0;right=0;points=[[0,0.5],[1,0.5]];portConstraint=eastwest;strokeWidth=1;fontStyle=1" parent="10" vertex="1">
                    <mxGeometry y="86" width="440" height="28" as="geometry"/>
                </mxCell>
                <mxCell id="63" value="36" style="shape=partialRectangle;html=1;whiteSpace=wrap;connectable=0;fillColor=#E6E6E6;top=0;left=0;bottom=0;right=0;overflow=hidden;pointerEvents=1;strokeWidth=1;fontStyle=1" parent="62" vertex="1">
                    <mxGeometry width="29" height="28" as="geometry">
                        <mxRectangle width="29" height="28" as="alternateBounds"/>
                    </mxGeometry>
                </mxCell>
                <mxCell id="64" value="37" style="shape=partialRectangle;html=1;whiteSpace=wrap;connectable=0;fillColor=#E6E6E6;top=0;left=0;bottom=0;right=0;overflow=hidden;pointerEvents=1;strokeWidth=1;fontStyle=1" parent="62" vertex="1">
                    <mxGeometry x="29" width="26" height="28" as="geometry">
                        <mxRectangle width="26" height="28" as="alternateBounds"/>
                    </mxGeometry>
                </mxCell>
                <mxCell id="65" value="38" style="shape=partialRectangle;html=1;whiteSpace=wrap;connectable=0;fillColor=#E6E6E6;top=0;left=0;bottom=0;right=0;overflow=hidden;pointerEvents=1;strokeWidth=1;fontStyle=1" parent="62" vertex="1">
                    <mxGeometry x="55" width="27" height="28" as="geometry">
                        <mxRectangle width="27" height="28" as="alternateBounds"/>
                    </mxGeometry>
                </mxCell>
                <mxCell id="66" value="39" style="shape=partialRectangle;html=1;whiteSpace=wrap;connectable=0;fillColor=#E6E6E6;top=0;left=0;bottom=0;right=0;overflow=hidden;pointerEvents=1;strokeWidth=1;fontStyle=1" parent="62" vertex="1">
                    <mxGeometry x="82" width="29" height="28" as="geometry">
                        <mxRectangle width="29" height="28" as="alternateBounds"/>
                    </mxGeometry>
                </mxCell>
                <mxCell id="67" value="40" style="shape=partialRectangle;html=1;whiteSpace=wrap;connectable=0;fillColor=#E6E6E6;top=0;left=0;bottom=0;right=0;overflow=hidden;pointerEvents=1;strokeWidth=1;fontStyle=1" parent="62" vertex="1">
                    <mxGeometry x="111" width="27" height="28" as="geometry">
                        <mxRectangle width="27" height="28" as="alternateBounds"/>
                    </mxGeometry>
                </mxCell>
                <mxCell id="68" value="41" style="shape=partialRectangle;html=1;whiteSpace=wrap;connectable=0;fillColor=#E6E6E6;top=0;left=0;bottom=0;right=0;overflow=hidden;pointerEvents=1;strokeWidth=1;fontStyle=1" parent="62" vertex="1">
                    <mxGeometry x="138" width="27" height="28" as="geometry">
                        <mxRectangle width="27" height="28" as="alternateBounds"/>
                    </mxGeometry>
                </mxCell>
                <mxCell id="69" value="42" style="shape=partialRectangle;html=1;whiteSpace=wrap;connectable=0;fillColor=#E6E6E6;top=0;left=0;bottom=0;right=0;overflow=hidden;pointerEvents=1;strokeWidth=1;fontStyle=1" parent="62" vertex="1">
                    <mxGeometry x="165" width="26" height="28" as="geometry">
                        <mxRectangle width="26" height="28" as="alternateBounds"/>
                    </mxGeometry>
                </mxCell>
                <mxCell id="70" value="43" style="shape=partialRectangle;html=1;whiteSpace=wrap;connectable=0;fillColor=#E6E6E6;top=0;left=0;bottom=0;right=0;overflow=hidden;pointerEvents=1;strokeWidth=1;fontStyle=1" parent="62" vertex="1">
                    <mxGeometry x="191" width="29" height="28" as="geometry">
                        <mxRectangle width="29" height="28" as="alternateBounds"/>
                    </mxGeometry>
                </mxCell>
                <mxCell id="71" value="44" style="shape=partialRectangle;html=1;whiteSpace=wrap;connectable=0;fillColor=#E6E6E6;top=0;left=0;bottom=0;right=0;overflow=hidden;pointerEvents=1;strokeWidth=1;fontStyle=1" parent="62" vertex="1">
                    <mxGeometry x="220" width="29" height="28" as="geometry">
                        <mxRectangle width="29" height="28" as="alternateBounds"/>
                    </mxGeometry>
                </mxCell>
                <mxCell id="72" value="45" style="shape=partialRectangle;html=1;whiteSpace=wrap;connectable=0;fillColor=#E6E6E6;top=0;left=0;bottom=0;right=0;overflow=hidden;pointerEvents=1;strokeWidth=1;fontStyle=1" parent="62" vertex="1">
                    <mxGeometry x="249" width="26" height="28" as="geometry">
                        <mxRectangle width="26" height="28" as="alternateBounds"/>
                    </mxGeometry>
                </mxCell>
                <mxCell id="73" value="46" style="shape=partialRectangle;html=1;whiteSpace=wrap;connectable=0;fillColor=#E6E6E6;top=0;left=0;bottom=0;right=0;overflow=hidden;pointerEvents=1;strokeWidth=1;fontStyle=1" parent="62" vertex="1">
                    <mxGeometry x="275" width="27" height="28" as="geometry">
                        <mxRectangle width="27" height="28" as="alternateBounds"/>
                    </mxGeometry>
                </mxCell>
                <mxCell id="74" value="47" style="shape=partialRectangle;html=1;whiteSpace=wrap;connectable=0;fillColor=#E6E6E6;top=0;left=0;bottom=0;right=0;overflow=hidden;pointerEvents=1;strokeWidth=1;fontStyle=1" parent="62" vertex="1">
                    <mxGeometry x="302" width="29" height="28" as="geometry">
                        <mxRectangle width="29" height="28" as="alternateBounds"/>
                    </mxGeometry>
                </mxCell>
                <mxCell id="75" value="0" style="shape=partialRectangle;html=1;whiteSpace=wrap;connectable=0;fillColor=#E6E6E6;top=0;left=0;bottom=0;right=0;overflow=hidden;pointerEvents=1;strokeWidth=1;fontStyle=1" parent="62" vertex="1">
                    <mxGeometry x="331" width="27" height="28" as="geometry">
                        <mxRectangle width="27" height="28" as="alternateBounds"/>
                    </mxGeometry>
                </mxCell>
                <mxCell id="76" value="0" style="shape=partialRectangle;html=1;whiteSpace=wrap;connectable=0;fillColor=#E6E6E6;top=0;left=0;bottom=0;right=0;overflow=hidden;pointerEvents=1;strokeWidth=1;fontStyle=1" parent="62" vertex="1">
                    <mxGeometry x="358" width="27" height="28" as="geometry">
                        <mxRectangle width="27" height="28" as="alternateBounds"/>
                    </mxGeometry>
                </mxCell>
                <mxCell id="77" value="0" style="shape=partialRectangle;html=1;whiteSpace=wrap;connectable=0;fillColor=#E6E6E6;top=0;left=0;bottom=0;right=0;overflow=hidden;pointerEvents=1;strokeWidth=1;fontStyle=1" parent="62" vertex="1">
                    <mxGeometry x="385" width="26" height="28" as="geometry">
                        <mxRectangle width="26" height="28" as="alternateBounds"/>
                    </mxGeometry>
                </mxCell>
                <mxCell id="78" value="0" style="shape=partialRectangle;html=1;whiteSpace=wrap;connectable=0;fillColor=#E6E6E6;top=0;left=0;bottom=0;right=0;overflow=hidden;pointerEvents=1;strokeWidth=1;fontStyle=1" parent="62" vertex="1">
                    <mxGeometry x="411" width="29" height="28" as="geometry">
                        <mxRectangle width="29" height="28" as="alternateBounds"/>
                    </mxGeometry>
                </mxCell>
                <mxCell id="79" value="" style="shape=partialRectangle;html=1;whiteSpace=wrap;collapsible=0;dropTarget=0;pointerEvents=0;fillColor=#E6E6E6;top=0;left=0;bottom=0;right=0;points=[[0,0.5],[1,0.5]];portConstraint=eastwest;strokeWidth=1;fontStyle=1" parent="10" vertex="1">
                    <mxGeometry y="114" width="440" height="29" as="geometry"/>
                </mxCell>
                <mxCell id="80" value="48" style="shape=partialRectangle;html=1;whiteSpace=wrap;connectable=0;fillColor=#E6E6E6;top=0;left=0;bottom=0;right=0;overflow=hidden;pointerEvents=1;strokeWidth=1;fontStyle=1" parent="79" vertex="1">
                    <mxGeometry width="29" height="29" as="geometry">
                        <mxRectangle width="29" height="29" as="alternateBounds"/>
                    </mxGeometry>
                </mxCell>
                <mxCell id="81" value="49" style="shape=partialRectangle;html=1;whiteSpace=wrap;connectable=0;fillColor=#E6E6E6;top=0;left=0;bottom=0;right=0;overflow=hidden;pointerEvents=1;strokeWidth=1;fontStyle=1" parent="79" vertex="1">
                    <mxGeometry x="29" width="26" height="29" as="geometry">
                        <mxRectangle width="26" height="29" as="alternateBounds"/>
                    </mxGeometry>
                </mxCell>
                <mxCell id="82" value="50" style="shape=partialRectangle;html=1;whiteSpace=wrap;connectable=0;fillColor=#E6E6E6;top=0;left=0;bottom=0;right=0;overflow=hidden;pointerEvents=1;strokeWidth=1;fontStyle=1" parent="79" vertex="1">
                    <mxGeometry x="55" width="27" height="29" as="geometry">
                        <mxRectangle width="27" height="29" as="alternateBounds"/>
                    </mxGeometry>
                </mxCell>
                <mxCell id="83" value="51" style="shape=partialRectangle;html=1;whiteSpace=wrap;connectable=0;fillColor=#E6E6E6;top=0;left=0;bottom=0;right=0;overflow=hidden;pointerEvents=1;strokeWidth=1;fontStyle=1" parent="79" vertex="1">
                    <mxGeometry x="82" width="29" height="29" as="geometry">
                        <mxRectangle width="29" height="29" as="alternateBounds"/>
                    </mxGeometry>
                </mxCell>
                <mxCell id="84" value="52" style="shape=partialRectangle;html=1;whiteSpace=wrap;connectable=0;fillColor=#E6E6E6;top=0;left=0;bottom=0;right=0;overflow=hidden;pointerEvents=1;strokeWidth=1;fontStyle=1" parent="79" vertex="1">
                    <mxGeometry x="111" width="27" height="29" as="geometry">
                        <mxRectangle width="27" height="29" as="alternateBounds"/>
                    </mxGeometry>
                </mxCell>
                <mxCell id="85" value="53" style="shape=partialRectangle;html=1;whiteSpace=wrap;connectable=0;fillColor=#E6E6E6;top=0;left=0;bottom=0;right=0;overflow=hidden;pointerEvents=1;strokeWidth=1;fontStyle=1" parent="79" vertex="1">
                    <mxGeometry x="138" width="27" height="29" as="geometry">
                        <mxRectangle width="27" height="29" as="alternateBounds"/>
                    </mxGeometry>
                </mxCell>
                <mxCell id="86" value="54" style="shape=partialRectangle;html=1;whiteSpace=wrap;connectable=0;fillColor=#E6E6E6;top=0;left=0;bottom=0;right=0;overflow=hidden;pointerEvents=1;strokeWidth=1;fontStyle=1" parent="79" vertex="1">
                    <mxGeometry x="165" width="26" height="29" as="geometry">
                        <mxRectangle width="26" height="29" as="alternateBounds"/>
                    </mxGeometry>
                </mxCell>
                <mxCell id="87" value="55" style="shape=partialRectangle;html=1;whiteSpace=wrap;connectable=0;fillColor=#E6E6E6;top=0;left=0;bottom=0;right=0;overflow=hidden;pointerEvents=1;strokeWidth=1;fontStyle=1" parent="79" vertex="1">
                    <mxGeometry x="191" width="29" height="29" as="geometry">
                        <mxRectangle width="29" height="29" as="alternateBounds"/>
                    </mxGeometry>
                </mxCell>
                <mxCell id="88" value="56" style="shape=partialRectangle;html=1;whiteSpace=wrap;connectable=0;fillColor=#E6E6E6;top=0;left=0;bottom=0;right=0;overflow=hidden;pointerEvents=1;strokeWidth=1;fontStyle=1" parent="79" vertex="1">
                    <mxGeometry x="220" width="29" height="29" as="geometry">
                        <mxRectangle width="29" height="29" as="alternateBounds"/>
                    </mxGeometry>
                </mxCell>
                <mxCell id="89" value="57" style="shape=partialRectangle;html=1;whiteSpace=wrap;connectable=0;fillColor=#E6E6E6;top=0;left=0;bottom=0;right=0;overflow=hidden;pointerEvents=1;strokeWidth=1;fontStyle=1" parent="79" vertex="1">
                    <mxGeometry x="249" width="26" height="29" as="geometry">
                        <mxRectangle width="26" height="29" as="alternateBounds"/>
                    </mxGeometry>
                </mxCell>
                <mxCell id="90" value="58" style="shape=partialRectangle;html=1;whiteSpace=wrap;connectable=0;fillColor=#E6E6E6;top=0;left=0;bottom=0;right=0;overflow=hidden;pointerEvents=1;strokeWidth=1;fontStyle=1" parent="79" vertex="1">
                    <mxGeometry x="275" width="27" height="29" as="geometry">
                        <mxRectangle width="27" height="29" as="alternateBounds"/>
                    </mxGeometry>
                </mxCell>
                <mxCell id="91" value="59" style="shape=partialRectangle;html=1;whiteSpace=wrap;connectable=0;fillColor=#E6E6E6;top=0;left=0;bottom=0;right=0;overflow=hidden;pointerEvents=1;strokeWidth=1;fontStyle=1" parent="79" vertex="1">
                    <mxGeometry x="302" width="29" height="29" as="geometry">
                        <mxRectangle width="29" height="29" as="alternateBounds"/>
                    </mxGeometry>
                </mxCell>
                <mxCell id="92" value="0" style="shape=partialRectangle;html=1;whiteSpace=wrap;connectable=0;fillColor=#E6E6E6;top=0;left=0;bottom=0;right=0;overflow=hidden;pointerEvents=1;strokeWidth=1;fontStyle=1" parent="79" vertex="1">
                    <mxGeometry x="331" width="27" height="29" as="geometry">
                        <mxRectangle width="27" height="29" as="alternateBounds"/>
                    </mxGeometry>
                </mxCell>
                <mxCell id="93" value="0" style="shape=partialRectangle;html=1;whiteSpace=wrap;connectable=0;fillColor=#E6E6E6;top=0;left=0;bottom=0;right=0;overflow=hidden;pointerEvents=1;strokeWidth=1;fontStyle=1" parent="79" vertex="1">
                    <mxGeometry x="358" width="27" height="29" as="geometry">
                        <mxRectangle width="27" height="29" as="alternateBounds"/>
                    </mxGeometry>
                </mxCell>
                <mxCell id="94" value="0" style="shape=partialRectangle;html=1;whiteSpace=wrap;connectable=0;fillColor=#E6E6E6;top=0;left=0;bottom=0;right=0;overflow=hidden;pointerEvents=1;strokeWidth=1;fontStyle=1" parent="79" vertex="1">
                    <mxGeometry x="385" width="26" height="29" as="geometry">
                        <mxRectangle width="26" height="29" as="alternateBounds"/>
                    </mxGeometry>
                </mxCell>
                <mxCell id="95" value="0" style="shape=partialRectangle;html=1;whiteSpace=wrap;connectable=0;fillColor=#E6E6E6;top=0;left=0;bottom=0;right=0;overflow=hidden;pointerEvents=1;strokeWidth=1;fontStyle=1" parent="79" vertex="1">
                    <mxGeometry x="411" width="29" height="29" as="geometry">
                        <mxRectangle width="29" height="29" as="alternateBounds"/>
                    </mxGeometry>
                </mxCell>
                <mxCell id="96" style="shape=partialRectangle;html=1;whiteSpace=wrap;collapsible=0;dropTarget=0;pointerEvents=0;fillColor=#E6E6E6;top=0;left=0;bottom=0;right=0;points=[[0,0.5],[1,0.5]];portConstraint=eastwest;strokeWidth=1;fontStyle=1" parent="10" vertex="1">
                    <mxGeometry y="143" width="440" height="28" as="geometry"/>
                </mxCell>
                <mxCell id="97" value="60" style="shape=partialRectangle;html=1;whiteSpace=wrap;connectable=0;fillColor=#E6E6E6;top=0;left=0;bottom=0;right=0;overflow=hidden;pointerEvents=1;strokeWidth=1;fontStyle=1" parent="96" vertex="1">
                    <mxGeometry width="29" height="28" as="geometry">
                        <mxRectangle width="29" height="28" as="alternateBounds"/>
                    </mxGeometry>
                </mxCell>
                <mxCell id="98" value="61" style="shape=partialRectangle;html=1;whiteSpace=wrap;connectable=0;fillColor=#E6E6E6;top=0;left=0;bottom=0;right=0;overflow=hidden;pointerEvents=1;strokeWidth=1;fontStyle=1" parent="96" vertex="1">
                    <mxGeometry x="29" width="26" height="28" as="geometry">
                        <mxRectangle width="26" height="28" as="alternateBounds"/>
                    </mxGeometry>
                </mxCell>
                <mxCell id="99" value="62" style="shape=partialRectangle;html=1;whiteSpace=wrap;connectable=0;fillColor=#E6E6E6;top=0;left=0;bottom=0;right=0;overflow=hidden;pointerEvents=1;strokeWidth=1;fontStyle=1" parent="96" vertex="1">
                    <mxGeometry x="55" width="27" height="28" as="geometry">
                        <mxRectangle width="27" height="28" as="alternateBounds"/>
                    </mxGeometry>
                </mxCell>
                <mxCell id="100" value="63" style="shape=partialRectangle;html=1;whiteSpace=wrap;connectable=0;fillColor=#E6E6E6;top=0;left=0;bottom=0;right=0;overflow=hidden;pointerEvents=1;strokeWidth=1;fontStyle=1" parent="96" vertex="1">
                    <mxGeometry x="82" width="29" height="28" as="geometry">
                        <mxRectangle width="29" height="28" as="alternateBounds"/>
                    </mxGeometry>
                </mxCell>
                <mxCell id="101" value="64" style="shape=partialRectangle;html=1;whiteSpace=wrap;connectable=0;fillColor=#E6E6E6;top=0;left=0;bottom=0;right=0;overflow=hidden;pointerEvents=1;strokeWidth=1;fontStyle=1" parent="96" vertex="1">
                    <mxGeometry x="111" width="27" height="28" as="geometry">
                        <mxRectangle width="27" height="28" as="alternateBounds"/>
                    </mxGeometry>
                </mxCell>
                <mxCell id="102" value="65" style="shape=partialRectangle;html=1;whiteSpace=wrap;connectable=0;fillColor=#E6E6E6;top=0;left=0;bottom=0;right=0;overflow=hidden;pointerEvents=1;strokeWidth=1;fontStyle=1" parent="96" vertex="1">
                    <mxGeometry x="138" width="27" height="28" as="geometry">
                        <mxRectangle width="27" height="28" as="alternateBounds"/>
                    </mxGeometry>
                </mxCell>
                <mxCell id="103" value="66" style="shape=partialRectangle;html=1;whiteSpace=wrap;connectable=0;fillColor=#E6E6E6;top=0;left=0;bottom=0;right=0;overflow=hidden;pointerEvents=1;strokeWidth=1;fontStyle=1" parent="96" vertex="1">
                    <mxGeometry x="165" width="26" height="28" as="geometry">
                        <mxRectangle width="26" height="28" as="alternateBounds"/>
                    </mxGeometry>
                </mxCell>
                <mxCell id="104" value="67" style="shape=partialRectangle;html=1;whiteSpace=wrap;connectable=0;fillColor=#E6E6E6;top=0;left=0;bottom=0;right=0;overflow=hidden;pointerEvents=1;strokeWidth=1;fontStyle=1" parent="96" vertex="1">
                    <mxGeometry x="191" width="29" height="28" as="geometry">
                        <mxRectangle width="29" height="28" as="alternateBounds"/>
                    </mxGeometry>
                </mxCell>
                <mxCell id="105" value="68" style="shape=partialRectangle;html=1;whiteSpace=wrap;connectable=0;fillColor=#E6E6E6;top=0;left=0;bottom=0;right=0;overflow=hidden;pointerEvents=1;strokeWidth=1;fontStyle=1" parent="96" vertex="1">
                    <mxGeometry x="220" width="29" height="28" as="geometry">
                        <mxRectangle width="29" height="28" as="alternateBounds"/>
                    </mxGeometry>
                </mxCell>
                <mxCell id="106" value="69" style="shape=partialRectangle;html=1;whiteSpace=wrap;connectable=0;fillColor=#E6E6E6;top=0;left=0;bottom=0;right=0;overflow=hidden;pointerEvents=1;strokeWidth=1;fontStyle=1" parent="96" vertex="1">
                    <mxGeometry x="249" width="26" height="28" as="geometry">
                        <mxRectangle width="26" height="28" as="alternateBounds"/>
                    </mxGeometry>
                </mxCell>
                <mxCell id="107" value="70" style="shape=partialRectangle;html=1;whiteSpace=wrap;connectable=0;fillColor=#E6E6E6;top=0;left=0;bottom=0;right=0;overflow=hidden;pointerEvents=1;strokeWidth=1;fontStyle=1" parent="96" vertex="1">
                    <mxGeometry x="275" width="27" height="28" as="geometry">
                        <mxRectangle width="27" height="28" as="alternateBounds"/>
                    </mxGeometry>
                </mxCell>
                <mxCell id="108" value="71" style="shape=partialRectangle;html=1;whiteSpace=wrap;connectable=0;fillColor=#E6E6E6;top=0;left=0;bottom=0;right=0;overflow=hidden;pointerEvents=1;strokeWidth=1;fontStyle=1" parent="96" vertex="1">
                    <mxGeometry x="302" width="29" height="28" as="geometry">
                        <mxRectangle width="29" height="28" as="alternateBounds"/>
                    </mxGeometry>
                </mxCell>
                <mxCell id="109" value="0" style="shape=partialRectangle;html=1;whiteSpace=wrap;connectable=0;fillColor=#E6E6E6;top=0;left=0;bottom=0;right=0;overflow=hidden;pointerEvents=1;strokeWidth=1;fontStyle=1" parent="96" vertex="1">
                    <mxGeometry x="331" width="27" height="28" as="geometry">
                        <mxRectangle width="27" height="28" as="alternateBounds"/>
                    </mxGeometry>
                </mxCell>
                <mxCell id="110" value="0" style="shape=partialRectangle;html=1;whiteSpace=wrap;connectable=0;fillColor=#E6E6E6;top=0;left=0;bottom=0;right=0;overflow=hidden;pointerEvents=1;strokeWidth=1;fontStyle=1" parent="96" vertex="1">
                    <mxGeometry x="358" width="27" height="28" as="geometry">
                        <mxRectangle width="27" height="28" as="alternateBounds"/>
                    </mxGeometry>
                </mxCell>
                <mxCell id="111" value="0" style="shape=partialRectangle;html=1;whiteSpace=wrap;connectable=0;fillColor=#E6E6E6;top=0;left=0;bottom=0;right=0;overflow=hidden;pointerEvents=1;strokeWidth=1;fontStyle=1" parent="96" vertex="1">
                    <mxGeometry x="385" width="26" height="28" as="geometry">
                        <mxRectangle width="26" height="28" as="alternateBounds"/>
                    </mxGeometry>
                </mxCell>
                <mxCell id="112" value="0" style="shape=partialRectangle;html=1;whiteSpace=wrap;connectable=0;fillColor=#E6E6E6;top=0;left=0;bottom=0;right=0;overflow=hidden;pointerEvents=1;strokeWidth=1;fontStyle=1" parent="96" vertex="1">
                    <mxGeometry x="411" width="29" height="28" as="geometry">
                        <mxRectangle width="29" height="28" as="alternateBounds"/>
                    </mxGeometry>
                </mxCell>
                <mxCell id="113" value="" style="shape=partialRectangle;html=1;whiteSpace=wrap;collapsible=0;dropTarget=0;pointerEvents=0;fillColor=#E6E6E6;top=0;left=0;bottom=0;right=0;points=[[0,0.5],[1,0.5]];portConstraint=eastwest;strokeWidth=1;fontStyle=1" parent="10" vertex="1">
                    <mxGeometry y="171" width="440" height="28" as="geometry"/>
                </mxCell>
                <mxCell id="114" value="0" style="shape=partialRectangle;html=1;whiteSpace=wrap;connectable=0;fillColor=#E6E6E6;top=0;left=0;bottom=0;right=0;overflow=hidden;pointerEvents=1;strokeWidth=1;fontStyle=1" parent="113" vertex="1">
                    <mxGeometry width="29" height="28" as="geometry">
                        <mxRectangle width="29" height="28" as="alternateBounds"/>
                    </mxGeometry>
                </mxCell>
                <mxCell id="115" value="0" style="shape=partialRectangle;html=1;whiteSpace=wrap;connectable=0;fillColor=#E6E6E6;top=0;left=0;bottom=0;right=0;overflow=hidden;pointerEvents=1;strokeWidth=1;fontStyle=1" parent="113" vertex="1">
                    <mxGeometry x="29" width="26" height="28" as="geometry">
                        <mxRectangle width="26" height="28" as="alternateBounds"/>
                    </mxGeometry>
                </mxCell>
                <mxCell id="116" value="0" style="shape=partialRectangle;html=1;whiteSpace=wrap;connectable=0;fillColor=#E6E6E6;top=0;left=0;bottom=0;right=0;overflow=hidden;pointerEvents=1;strokeWidth=1;fontStyle=1" parent="113" vertex="1">
                    <mxGeometry x="55" width="27" height="28" as="geometry">
                        <mxRectangle width="27" height="28" as="alternateBounds"/>
                    </mxGeometry>
                </mxCell>
                <mxCell id="117" value="0" style="shape=partialRectangle;html=1;whiteSpace=wrap;connectable=0;fillColor=#E6E6E6;top=0;left=0;bottom=0;right=0;overflow=hidden;pointerEvents=1;strokeWidth=1;fontStyle=1" parent="113" vertex="1">
                    <mxGeometry x="82" width="29" height="28" as="geometry">
                        <mxRectangle width="29" height="28" as="alternateBounds"/>
                    </mxGeometry>
                </mxCell>
                <mxCell id="118" value="0" style="shape=partialRectangle;html=1;whiteSpace=wrap;connectable=0;fillColor=#E6E6E6;top=0;left=0;bottom=0;right=0;overflow=hidden;pointerEvents=1;strokeWidth=1;fontStyle=1" parent="113" vertex="1">
                    <mxGeometry x="111" width="27" height="28" as="geometry">
                        <mxRectangle width="27" height="28" as="alternateBounds"/>
                    </mxGeometry>
                </mxCell>
                <mxCell id="119" value="0" style="shape=partialRectangle;html=1;whiteSpace=wrap;connectable=0;fillColor=#E6E6E6;top=0;left=0;bottom=0;right=0;overflow=hidden;pointerEvents=1;strokeWidth=1;fontStyle=1" parent="113" vertex="1">
                    <mxGeometry x="138" width="27" height="28" as="geometry">
                        <mxRectangle width="27" height="28" as="alternateBounds"/>
                    </mxGeometry>
                </mxCell>
                <mxCell id="120" value="0" style="shape=partialRectangle;html=1;whiteSpace=wrap;connectable=0;fillColor=#E6E6E6;top=0;left=0;bottom=0;right=0;overflow=hidden;pointerEvents=1;strokeWidth=1;fontStyle=1" parent="113" vertex="1">
                    <mxGeometry x="165" width="26" height="28" as="geometry">
                        <mxRectangle width="26" height="28" as="alternateBounds"/>
                    </mxGeometry>
                </mxCell>
                <mxCell id="121" value="0" style="shape=partialRectangle;html=1;whiteSpace=wrap;connectable=0;fillColor=#E6E6E6;top=0;left=0;bottom=0;right=0;overflow=hidden;pointerEvents=1;strokeWidth=1;fontStyle=1" parent="113" vertex="1">
                    <mxGeometry x="191" width="29" height="28" as="geometry">
                        <mxRectangle width="29" height="28" as="alternateBounds"/>
                    </mxGeometry>
                </mxCell>
                <mxCell id="122" value="0" style="shape=partialRectangle;html=1;whiteSpace=wrap;connectable=0;fillColor=#E6E6E6;top=0;left=0;bottom=0;right=0;overflow=hidden;pointerEvents=1;strokeWidth=1;fontStyle=1" parent="113" vertex="1">
                    <mxGeometry x="220" width="29" height="28" as="geometry">
                        <mxRectangle width="29" height="28" as="alternateBounds"/>
                    </mxGeometry>
                </mxCell>
                <mxCell id="123" value="0" style="shape=partialRectangle;html=1;whiteSpace=wrap;connectable=0;fillColor=#E6E6E6;top=0;left=0;bottom=0;right=0;overflow=hidden;pointerEvents=1;strokeWidth=1;fontStyle=1" parent="113" vertex="1">
                    <mxGeometry x="249" width="26" height="28" as="geometry">
                        <mxRectangle width="26" height="28" as="alternateBounds"/>
                    </mxGeometry>
                </mxCell>
                <mxCell id="124" value="0" style="shape=partialRectangle;html=1;whiteSpace=wrap;connectable=0;fillColor=#E6E6E6;top=0;left=0;bottom=0;right=0;overflow=hidden;pointerEvents=1;strokeWidth=1;fontStyle=1" parent="113" vertex="1">
                    <mxGeometry x="275" width="27" height="28" as="geometry">
                        <mxRectangle width="27" height="28" as="alternateBounds"/>
                    </mxGeometry>
                </mxCell>
                <mxCell id="125" value="0" style="shape=partialRectangle;html=1;whiteSpace=wrap;connectable=0;fillColor=#E6E6E6;top=0;left=0;bottom=0;right=0;overflow=hidden;pointerEvents=1;strokeWidth=1;fontStyle=1" parent="113" vertex="1">
                    <mxGeometry x="302" width="29" height="28" as="geometry">
                        <mxRectangle width="29" height="28" as="alternateBounds"/>
                    </mxGeometry>
                </mxCell>
                <mxCell id="126" value="0" style="shape=partialRectangle;html=1;whiteSpace=wrap;connectable=0;fillColor=#E6E6E6;top=0;left=0;bottom=0;right=0;overflow=hidden;pointerEvents=1;strokeWidth=1;fontStyle=1" parent="113" vertex="1">
                    <mxGeometry x="331" width="27" height="28" as="geometry">
                        <mxRectangle width="27" height="28" as="alternateBounds"/>
                    </mxGeometry>
                </mxCell>
                <mxCell id="127" value="0" style="shape=partialRectangle;html=1;whiteSpace=wrap;connectable=0;fillColor=#E6E6E6;top=0;left=0;bottom=0;right=0;overflow=hidden;pointerEvents=1;strokeWidth=1;fontStyle=1" parent="113" vertex="1">
                    <mxGeometry x="358" width="27" height="28" as="geometry">
                        <mxRectangle width="27" height="28" as="alternateBounds"/>
                    </mxGeometry>
                </mxCell>
                <mxCell id="128" value="0" style="shape=partialRectangle;html=1;whiteSpace=wrap;connectable=0;fillColor=#E6E6E6;top=0;left=0;bottom=0;right=0;overflow=hidden;pointerEvents=1;strokeWidth=1;fontStyle=1" parent="113" vertex="1">
                    <mxGeometry x="385" width="26" height="28" as="geometry">
                        <mxRectangle width="26" height="28" as="alternateBounds"/>
                    </mxGeometry>
                </mxCell>
                <mxCell id="129" value="0" style="shape=partialRectangle;html=1;whiteSpace=wrap;connectable=0;fillColor=#E6E6E6;top=0;left=0;bottom=0;right=0;overflow=hidden;pointerEvents=1;strokeWidth=1;fontStyle=1" parent="113" vertex="1">
                    <mxGeometry x="411" width="29" height="28" as="geometry">
                        <mxRectangle width="29" height="28" as="alternateBounds"/>
                    </mxGeometry>
                </mxCell>
                <mxCell id="130" value="" style="shape=partialRectangle;html=1;whiteSpace=wrap;collapsible=0;dropTarget=0;pointerEvents=0;fillColor=#E6E6E6;top=0;left=0;bottom=0;right=0;points=[[0,0.5],[1,0.5]];portConstraint=eastwest;strokeWidth=1;fontStyle=1" parent="10" vertex="1">
                    <mxGeometry y="199" width="440" height="29" as="geometry"/>
                </mxCell>
                <mxCell id="131" value="0" style="shape=partialRectangle;html=1;whiteSpace=wrap;connectable=0;fillColor=#E6E6E6;top=0;left=0;bottom=0;right=0;overflow=hidden;pointerEvents=1;strokeWidth=1;fontStyle=1" parent="130" vertex="1">
                    <mxGeometry width="29" height="29" as="geometry">
                        <mxRectangle width="29" height="29" as="alternateBounds"/>
                    </mxGeometry>
                </mxCell>
                <mxCell id="132" value="0" style="shape=partialRectangle;html=1;whiteSpace=wrap;connectable=0;fillColor=#E6E6E6;top=0;left=0;bottom=0;right=0;overflow=hidden;pointerEvents=1;strokeWidth=1;fontStyle=1" parent="130" vertex="1">
                    <mxGeometry x="29" width="26" height="29" as="geometry">
                        <mxRectangle width="26" height="29" as="alternateBounds"/>
                    </mxGeometry>
                </mxCell>
                <mxCell id="133" value="0" style="shape=partialRectangle;html=1;whiteSpace=wrap;connectable=0;fillColor=#E6E6E6;top=0;left=0;bottom=0;right=0;overflow=hidden;pointerEvents=1;strokeWidth=1;fontStyle=1" parent="130" vertex="1">
                    <mxGeometry x="55" width="27" height="29" as="geometry">
                        <mxRectangle width="27" height="29" as="alternateBounds"/>
                    </mxGeometry>
                </mxCell>
                <mxCell id="134" value="0" style="shape=partialRectangle;html=1;whiteSpace=wrap;connectable=0;fillColor=#E6E6E6;top=0;left=0;bottom=0;right=0;overflow=hidden;pointerEvents=1;strokeWidth=1;fontStyle=1" parent="130" vertex="1">
                    <mxGeometry x="82" width="29" height="29" as="geometry">
                        <mxRectangle width="29" height="29" as="alternateBounds"/>
                    </mxGeometry>
                </mxCell>
                <mxCell id="135" value="0" style="shape=partialRectangle;html=1;whiteSpace=wrap;connectable=0;fillColor=#E6E6E6;top=0;left=0;bottom=0;right=0;overflow=hidden;pointerEvents=1;strokeWidth=1;fontStyle=1" parent="130" vertex="1">
                    <mxGeometry x="111" width="27" height="29" as="geometry">
                        <mxRectangle width="27" height="29" as="alternateBounds"/>
                    </mxGeometry>
                </mxCell>
                <mxCell id="136" value="0" style="shape=partialRectangle;html=1;whiteSpace=wrap;connectable=0;fillColor=#E6E6E6;top=0;left=0;bottom=0;right=0;overflow=hidden;pointerEvents=1;strokeWidth=1;fontStyle=1" parent="130" vertex="1">
                    <mxGeometry x="138" width="27" height="29" as="geometry">
                        <mxRectangle width="27" height="29" as="alternateBounds"/>
                    </mxGeometry>
                </mxCell>
                <mxCell id="137" value="0" style="shape=partialRectangle;html=1;whiteSpace=wrap;connectable=0;fillColor=#E6E6E6;top=0;left=0;bottom=0;right=0;overflow=hidden;pointerEvents=1;strokeWidth=1;fontStyle=1" parent="130" vertex="1">
                    <mxGeometry x="165" width="26" height="29" as="geometry">
                        <mxRectangle width="26" height="29" as="alternateBounds"/>
                    </mxGeometry>
                </mxCell>
                <mxCell id="138" value="0" style="shape=partialRectangle;html=1;whiteSpace=wrap;connectable=0;fillColor=#E6E6E6;top=0;left=0;bottom=0;right=0;overflow=hidden;pointerEvents=1;strokeWidth=1;fontStyle=1" parent="130" vertex="1">
                    <mxGeometry x="191" width="29" height="29" as="geometry">
                        <mxRectangle width="29" height="29" as="alternateBounds"/>
                    </mxGeometry>
                </mxCell>
                <mxCell id="139" value="0" style="shape=partialRectangle;html=1;whiteSpace=wrap;connectable=0;fillColor=#E6E6E6;top=0;left=0;bottom=0;right=0;overflow=hidden;pointerEvents=1;strokeWidth=1;fontStyle=1" parent="130" vertex="1">
                    <mxGeometry x="220" width="29" height="29" as="geometry">
                        <mxRectangle width="29" height="29" as="alternateBounds"/>
                    </mxGeometry>
                </mxCell>
                <mxCell id="140" value="0" style="shape=partialRectangle;html=1;whiteSpace=wrap;connectable=0;fillColor=#E6E6E6;top=0;left=0;bottom=0;right=0;overflow=hidden;pointerEvents=1;strokeWidth=1;fontStyle=1" parent="130" vertex="1">
                    <mxGeometry x="249" width="26" height="29" as="geometry">
                        <mxRectangle width="26" height="29" as="alternateBounds"/>
                    </mxGeometry>
                </mxCell>
                <mxCell id="141" value="0" style="shape=partialRectangle;html=1;whiteSpace=wrap;connectable=0;fillColor=#E6E6E6;top=0;left=0;bottom=0;right=0;overflow=hidden;pointerEvents=1;strokeWidth=1;fontStyle=1" parent="130" vertex="1">
                    <mxGeometry x="275" width="27" height="29" as="geometry">
                        <mxRectangle width="27" height="29" as="alternateBounds"/>
                    </mxGeometry>
                </mxCell>
                <mxCell id="142" value="0" style="shape=partialRectangle;html=1;whiteSpace=wrap;connectable=0;fillColor=#E6E6E6;top=0;left=0;bottom=0;right=0;overflow=hidden;pointerEvents=1;strokeWidth=1;fontStyle=1" parent="130" vertex="1">
                    <mxGeometry x="302" width="29" height="29" as="geometry">
                        <mxRectangle width="29" height="29" as="alternateBounds"/>
                    </mxGeometry>
                </mxCell>
                <mxCell id="143" value="0" style="shape=partialRectangle;html=1;whiteSpace=wrap;connectable=0;fillColor=#E6E6E6;top=0;left=0;bottom=0;right=0;overflow=hidden;pointerEvents=1;strokeWidth=1;fontStyle=1" parent="130" vertex="1">
                    <mxGeometry x="331" width="27" height="29" as="geometry">
                        <mxRectangle width="27" height="29" as="alternateBounds"/>
                    </mxGeometry>
                </mxCell>
                <mxCell id="144" value="0" style="shape=partialRectangle;html=1;whiteSpace=wrap;connectable=0;fillColor=#E6E6E6;top=0;left=0;bottom=0;right=0;overflow=hidden;pointerEvents=1;strokeWidth=1;fontStyle=1" parent="130" vertex="1">
                    <mxGeometry x="358" width="27" height="29" as="geometry">
                        <mxRectangle width="27" height="29" as="alternateBounds"/>
                    </mxGeometry>
                </mxCell>
                <mxCell id="145" value="0" style="shape=partialRectangle;html=1;whiteSpace=wrap;connectable=0;fillColor=#E6E6E6;top=0;left=0;bottom=0;right=0;overflow=hidden;pointerEvents=1;strokeWidth=1;fontStyle=1" parent="130" vertex="1">
                    <mxGeometry x="385" width="26" height="29" as="geometry">
                        <mxRectangle width="26" height="29" as="alternateBounds"/>
                    </mxGeometry>
                </mxCell>
                <mxCell id="146" value="0" style="shape=partialRectangle;html=1;whiteSpace=wrap;connectable=0;fillColor=#E6E6E6;top=0;left=0;bottom=0;right=0;overflow=hidden;pointerEvents=1;strokeWidth=1;fontStyle=1" parent="130" vertex="1">
                    <mxGeometry x="411" width="29" height="29" as="geometry">
                        <mxRectangle width="29" height="29" as="alternateBounds"/>
                    </mxGeometry>
                </mxCell>
                <mxCell id="147" value="" style="rounded=0;whiteSpace=wrap;html=1;strokeColor=#000000;strokeWidth=3;fillColor=none;fontStyle=1" parent="1" vertex="1">
                    <mxGeometry x="431.71000000000015" y="347" width="220" height="113" as="geometry"/>
                </mxCell>
                <mxCell id="148" value="" style="rounded=0;whiteSpace=wrap;html=1;strokeColor=#000000;strokeWidth=3;fillColor=none;fontStyle=1" parent="1" vertex="1">
                    <mxGeometry x="211.71000000000004" y="460" width="220" height="113" as="geometry"/>
                </mxCell>
                <mxCell id="149" value="" style="rounded=0;whiteSpace=wrap;html=1;strokeColor=#000000;strokeWidth=3;fillColor=none;fontStyle=1" parent="1" vertex="1">
                    <mxGeometry x="431.71000000000004" y="460" width="220" height="113" as="geometry"/>
                </mxCell>
                <mxCell id="150" value="" style="rounded=0;whiteSpace=wrap;html=1;strokeColor=#000000;strokeWidth=3;fillColor=none;fontStyle=1" parent="1" vertex="1">
                    <mxGeometry x="211.71000000000004" y="347" width="220" height="113" as="geometry"/>
                </mxCell>
                <mxCell id="151" value="" style="shape=curlyBracket;whiteSpace=wrap;html=1;rounded=1;strokeColor=#000000;strokeWidth=3;fillColor=none;rotation=90;fontStyle=1" parent="1" vertex="1">
                    <mxGeometry x="590" y="270" width="20" height="115" as="geometry"/>
                </mxCell>
                <mxCell id="152" value="" style="shape=curlyBracket;whiteSpace=wrap;html=1;rounded=1;strokeColor=#000000;strokeWidth=3;fillColor=none;rotation=90;fontStyle=1" parent="1" vertex="1">
                    <mxGeometry x="310" y="179" width="20" height="212" as="geometry"/>
                </mxCell>
                <mxCell id="153" value="" style="shape=curlyBracket;whiteSpace=wrap;html=1;rounded=1;strokeColor=#000000;strokeWidth=3;fillColor=none;rotation=90;fontStyle=1" parent="1" vertex="1">
                    <mxGeometry x="366" y="82" width="20" height="324" as="geometry"/>
                </mxCell>
                <mxCell id="154" value="" style="shape=curlyBracket;whiteSpace=wrap;html=1;rounded=1;strokeColor=#000000;strokeWidth=3;fillColor=none;rotation=0;fontStyle=1" parent="1" vertex="1">
                    <mxGeometry x="182" y="346" width="20" height="115" as="geometry"/>
                </mxCell>
                <mxCell id="155" value="" style="shape=curlyBracket;whiteSpace=wrap;html=1;rounded=1;strokeColor=#000000;strokeWidth=3;fillColor=none;rotation=0;fontStyle=1" parent="1" vertex="1">
                    <mxGeometry x="123" y="345" width="20" height="164" as="geometry"/>
                </mxCell>
                <mxCell id="156" value="C = 3" style="text;html=1;strokeColor=none;fillColor=none;align=center;verticalAlign=middle;whiteSpace=wrap;rounded=0;fontStyle=1" parent="1" vertex="1">
                    <mxGeometry x="347" y="206" width="60" height="30" as="geometry"/>
                </mxCell>
                <mxCell id="157" value="" style="shape=curlyBracket;whiteSpace=wrap;html=1;rounded=1;strokeColor=#000000;strokeWidth=3;fillColor=none;rotation=-180;fontStyle=1" parent="1" vertex="1">
                    <mxGeometry x="667" y="515" width="20" height="52" as="geometry"/>
                </mxCell>
                <mxCell id="158" value="" style="shape=curlyBracket;whiteSpace=wrap;html=1;rounded=1;strokeColor=#000000;strokeWidth=3;fillColor=none;rotation=90;fontStyle=1" parent="1" vertex="1">
                    <mxGeometry x="262" y="264" width="20" height="115" as="geometry"/>
                </mxCell>
                <mxCell id="159" value="C_UNROLL = 8" style="text;html=1;strokeColor=none;fillColor=none;align=center;verticalAlign=middle;whiteSpace=wrap;rounded=0;fontStyle=1" parent="1" vertex="1">
                    <mxGeometry x="266.5" y="248" width="107" height="30" as="geometry"/>
                </mxCell>
                <mxCell id="160" value="K_UNROLL² = 4" style="text;html=1;strokeColor=none;fillColor=none;align=center;verticalAlign=middle;whiteSpace=wrap;rounded=0;fontStyle=1" parent="1" vertex="1">
                    <mxGeometry x="218.5" y="288" width="107" height="30" as="geometry"/>
                </mxCell>
                <mxCell id="161" value="F_UNROLL = 4" style="text;html=1;strokeColor=none;fillColor=none;align=center;verticalAlign=middle;whiteSpace=wrap;rounded=0;horizontal=0;fontStyle=1" parent="1" vertex="1">
                    <mxGeometry x="151" y="355.5" width="31" height="96" as="geometry"/>
                </mxCell>
                <mxCell id="162" value="F = 6" style="text;html=1;strokeColor=none;fillColor=none;align=center;verticalAlign=middle;whiteSpace=wrap;rounded=0;horizontal=0;fontStyle=1" parent="1" vertex="1">
                    <mxGeometry x="95" y="379" width="31" height="96" as="geometry"/>
                </mxCell>
                <mxCell id="163" value="C_PADDING = 1" style="text;html=1;strokeColor=none;fillColor=none;align=center;verticalAlign=middle;whiteSpace=wrap;rounded=0;fontStyle=1" parent="1" vertex="1">
                    <mxGeometry x="544.71" y="289" width="107" height="30" as="geometry"/>
                </mxCell>
                <mxCell id="164" value="F_PADDING = 2" style="text;html=1;strokeColor=none;fillColor=none;align=center;verticalAlign=middle;whiteSpace=wrap;rounded=0;horizontal=0;fontStyle=1" parent="1" vertex="1">
                    <mxGeometry x="684" y="491" width="31" height="96" as="geometry"/>
                </mxCell>
                <mxCell id="165" value="" style="shape=cube;whiteSpace=wrap;html=1;boundedLbl=1;backgroundOutline=1;darkOpacity=0.05;darkOpacity2=0.1;strokeColor=default;strokeWidth=3;fillColor=#67AB9F;size=11;fontStyle=1" parent="1" vertex="1">
                    <mxGeometry x="246.21000000000004" y="704.7599999999999" width="29.5" height="30.82" as="geometry"/>
                </mxCell>
                <mxCell id="166" value="" style="shape=curlyBracket;whiteSpace=wrap;html=1;rounded=1;strokeColor=#000000;strokeWidth=3;fillColor=none;rotation=-90;fontStyle=1" parent="1" vertex="1">
                    <mxGeometry x="432.90999999999997" y="542" width="20" height="477" as="geometry"/>
                </mxCell>
                <mxCell id="167" value="F = 6" style="text;html=1;strokeColor=none;fillColor=none;align=center;verticalAlign=middle;whiteSpace=wrap;rounded=0;fontStyle=1" parent="1" vertex="1">
                    <mxGeometry x="413.9100000000001" y="794.04" width="31" height="30" as="geometry"/>
                </mxCell>
                <mxCell id="168" value="" style="shape=curlyBracket;whiteSpace=wrap;html=1;rounded=1;strokeColor=#000000;strokeWidth=3;fillColor=none;rotation=-90;size=0.5;fontStyle=1" parent="1" vertex="1">
                    <mxGeometry x="250.58999999999997" y="727.35" width="14" height="39.17" as="geometry"/>
                </mxCell>
                <mxCell id="169" value="K = 2" style="text;html=1;strokeColor=none;fillColor=none;align=center;verticalAlign=middle;whiteSpace=wrap;rounded=0;fontStyle=1" parent="1" vertex="1">
                    <mxGeometry x="240.51999999999998" y="744.29" width="34.14" height="30" as="geometry"/>
                </mxCell>
                <mxCell id="170" value="" style="shape=curlyBracket;whiteSpace=wrap;html=1;rounded=1;strokeColor=#000000;strokeWidth=3;fillColor=none;rotation=-45;size=0.5;fontStyle=1" parent="1" vertex="1">
                    <mxGeometry x="196" y="700.35" width="20" height="56.79" as="geometry"/>
                </mxCell>
                <mxCell id="171" value="C = 3" style="text;html=1;strokeColor=none;fillColor=none;align=center;verticalAlign=middle;whiteSpace=wrap;rounded=0;fontStyle=1" parent="1" vertex="1">
                    <mxGeometry x="167.86" y="731.9399999999999" width="34.14" height="30" as="geometry"/>
                </mxCell>
                <mxCell id="172" value="" style="shape=curlyBracket;whiteSpace=wrap;html=1;rounded=1;strokeColor=#000000;strokeWidth=3;fillColor=none;rotation=-180;size=0.5;fontStyle=1" parent="1" vertex="1">
                    <mxGeometry x="282" y="697.15" width="20" height="37" as="geometry"/>
                </mxCell>
                <mxCell id="173" value="K = 2" style="text;html=1;strokeColor=none;fillColor=none;align=center;verticalAlign=middle;whiteSpace=wrap;rounded=0;fontStyle=1" parent="1" vertex="1">
                    <mxGeometry x="295.49" y="713.74" width="32.51" height="30" as="geometry"/>
                </mxCell>
                <mxCell id="174" value="" style="shape=cube;whiteSpace=wrap;html=1;boundedLbl=1;backgroundOutline=1;darkOpacity=0.05;darkOpacity2=0.1;strokeColor=default;strokeWidth=3;fillColor=#67AB9F;size=11;fontStyle=1" parent="1" vertex="1">
                    <mxGeometry x="226.55000000000007" y="704.7599999999999" width="29.5" height="30.82" as="geometry"/>
                </mxCell>
                <mxCell id="175" value="" style="shape=cube;whiteSpace=wrap;html=1;boundedLbl=1;backgroundOutline=1;darkOpacity=0.05;darkOpacity2=0.1;strokeColor=default;strokeWidth=3;fillColor=#67AB9F;size=11;fontStyle=1" parent="1" vertex="1">
                    <mxGeometry x="246.25" y="684.7499999999999" width="29.5" height="30.82" as="geometry"/>
                </mxCell>
                <mxCell id="176" value="" style="shape=cube;whiteSpace=wrap;html=1;boundedLbl=1;backgroundOutline=1;darkOpacity=0.05;darkOpacity2=0.1;strokeColor=default;strokeWidth=3;fillColor=#67AB9F;size=11;fontStyle=1" parent="1" vertex="1">
                    <mxGeometry x="226.55000000000007" y="684.7499999999999" width="29.5" height="30.82" as="geometry"/>
                </mxCell>
                <mxCell id="177" value="" style="shape=cube;whiteSpace=wrap;html=1;boundedLbl=1;backgroundOutline=1;darkOpacity=0.05;darkOpacity2=0.1;strokeColor=default;strokeWidth=3;fillColor=#CC0066;size=11;fontStyle=1" parent="1" vertex="1">
                    <mxGeometry x="339.2900000000001" y="683.9399999999998" width="29.5" height="30.82" as="geometry"/>
                </mxCell>
                <mxCell id="178" value="" style="shape=cube;whiteSpace=wrap;html=1;boundedLbl=1;backgroundOutline=1;darkOpacity=0.05;darkOpacity2=0.1;strokeColor=default;strokeWidth=3;fillColor=#CC0066;size=11;fontStyle=1" parent="1" vertex="1">
                    <mxGeometry x="319.6300000000001" y="683.9399999999998" width="29.5" height="30.82" as="geometry"/>
                </mxCell>
                <mxCell id="179" value="" style="shape=cube;whiteSpace=wrap;html=1;boundedLbl=1;backgroundOutline=1;darkOpacity=0.05;darkOpacity2=0.1;strokeColor=default;strokeWidth=3;fillColor=#CC0066;size=11;fontStyle=1" parent="1" vertex="1">
                    <mxGeometry x="339.33000000000004" y="663.9299999999998" width="29.5" height="30.82" as="geometry"/>
                </mxCell>
                <mxCell id="180" value="" style="shape=cube;whiteSpace=wrap;html=1;boundedLbl=1;backgroundOutline=1;darkOpacity=0.05;darkOpacity2=0.1;strokeColor=default;strokeWidth=3;fillColor=#CC0066;size=11;fontStyle=1" parent="1" vertex="1">
                    <mxGeometry x="319.6300000000001" y="663.9299999999998" width="29.5" height="30.82" as="geometry"/>
                </mxCell>
                <mxCell id="181" value="" style="shape=cube;whiteSpace=wrap;html=1;boundedLbl=1;backgroundOutline=1;darkOpacity=0.05;darkOpacity2=0.1;strokeColor=default;strokeWidth=3;fillColor=#CC0066;size=11;fontStyle=1" parent="1" vertex="1">
                    <mxGeometry x="349.2900000000001" y="693.9399999999998" width="29.5" height="30.82" as="geometry"/>
                </mxCell>
                <mxCell id="182" value="" style="shape=cube;whiteSpace=wrap;html=1;boundedLbl=1;backgroundOutline=1;darkOpacity=0.05;darkOpacity2=0.1;strokeColor=default;strokeWidth=3;fillColor=#CC0066;size=11;fontStyle=1" parent="1" vertex="1">
                    <mxGeometry x="329.6300000000001" y="693.9399999999998" width="29.5" height="30.82" as="geometry"/>
                </mxCell>
                <mxCell id="183" value="" style="shape=cube;whiteSpace=wrap;html=1;boundedLbl=1;backgroundOutline=1;darkOpacity=0.05;darkOpacity2=0.1;strokeColor=default;strokeWidth=3;fillColor=#CC0066;size=11;fontStyle=1" parent="1" vertex="1">
                    <mxGeometry x="349.33000000000004" y="673.9299999999998" width="29.5" height="30.82" as="geometry"/>
                </mxCell>
                <mxCell id="184" value="" style="shape=cube;whiteSpace=wrap;html=1;boundedLbl=1;backgroundOutline=1;darkOpacity=0.05;darkOpacity2=0.1;strokeColor=default;strokeWidth=3;fillColor=#CC0066;size=11;fontStyle=1" parent="1" vertex="1">
                    <mxGeometry x="329.6300000000001" y="673.9299999999998" width="29.5" height="30.82" as="geometry"/>
                </mxCell>
                <mxCell id="185" value="" style="shape=cube;whiteSpace=wrap;html=1;boundedLbl=1;backgroundOutline=1;darkOpacity=0.05;darkOpacity2=0.1;strokeColor=default;strokeWidth=3;fillColor=#CC0066;size=11;fontStyle=1" parent="1" vertex="1">
                    <mxGeometry x="359.84000000000003" y="704.7599999999999" width="29.5" height="30.82" as="geometry"/>
                </mxCell>
                <mxCell id="186" value="" style="shape=cube;whiteSpace=wrap;html=1;boundedLbl=1;backgroundOutline=1;darkOpacity=0.05;darkOpacity2=0.1;strokeColor=default;strokeWidth=3;fillColor=#CC0066;size=11;fontStyle=1" parent="1" vertex="1">
                    <mxGeometry x="340.18000000000006" y="704.7599999999999" width="29.5" height="30.82" as="geometry"/>
                </mxCell>
                <mxCell id="187" value="" style="shape=cube;whiteSpace=wrap;html=1;boundedLbl=1;backgroundOutline=1;darkOpacity=0.05;darkOpacity2=0.1;strokeColor=default;strokeWidth=3;fillColor=#CC0066;size=11;fontStyle=1" parent="1" vertex="1">
                    <mxGeometry x="359.88" y="684.7499999999999" width="29.5" height="30.82" as="geometry"/>
                </mxCell>
                <mxCell id="188" value="" style="shape=cube;whiteSpace=wrap;html=1;boundedLbl=1;backgroundOutline=1;darkOpacity=0.05;darkOpacity2=0.1;strokeColor=default;strokeWidth=3;fillColor=#CC0066;size=11;fontStyle=1" parent="1" vertex="1">
                    <mxGeometry x="340.18000000000006" y="684.7499999999999" width="29.5" height="30.82" as="geometry"/>
                </mxCell>
                <mxCell id="189" value="" style="shape=cube;whiteSpace=wrap;html=1;boundedLbl=1;backgroundOutline=1;darkOpacity=0.05;darkOpacity2=0.1;strokeColor=default;strokeWidth=3;fillColor=#FF8000;size=11;fontStyle=1" parent="1" vertex="1">
                    <mxGeometry x="414.0000000000001" y="683.7399999999998" width="29.5" height="30.82" as="geometry"/>
                </mxCell>
                <mxCell id="190" value="" style="shape=cube;whiteSpace=wrap;html=1;boundedLbl=1;backgroundOutline=1;darkOpacity=0.05;darkOpacity2=0.1;strokeColor=default;strokeWidth=3;fillColor=#FF8000;size=11;fontStyle=1" parent="1" vertex="1">
                    <mxGeometry x="394.34000000000015" y="683.7399999999998" width="29.5" height="30.82" as="geometry"/>
                </mxCell>
                <mxCell id="191" value="" style="shape=cube;whiteSpace=wrap;html=1;boundedLbl=1;backgroundOutline=1;darkOpacity=0.05;darkOpacity2=0.1;strokeColor=default;strokeWidth=3;fillColor=#FF8000;size=11;fontStyle=1" parent="1" vertex="1">
                    <mxGeometry x="414.0400000000001" y="663.7299999999998" width="29.5" height="30.82" as="geometry"/>
                </mxCell>
                <mxCell id="192" value="" style="shape=cube;whiteSpace=wrap;html=1;boundedLbl=1;backgroundOutline=1;darkOpacity=0.05;darkOpacity2=0.1;strokeColor=default;strokeWidth=3;fillColor=#FF8000;size=11;fontStyle=1" parent="1" vertex="1">
                    <mxGeometry x="394.34000000000015" y="663.7299999999998" width="29.5" height="30.82" as="geometry"/>
                </mxCell>
                <mxCell id="193" value="" style="shape=cube;whiteSpace=wrap;html=1;boundedLbl=1;backgroundOutline=1;darkOpacity=0.05;darkOpacity2=0.1;strokeColor=default;strokeWidth=3;fillColor=#FF8000;size=11;fontStyle=1" parent="1" vertex="1">
                    <mxGeometry x="424.0000000000001" y="693.7399999999998" width="29.5" height="30.82" as="geometry"/>
                </mxCell>
                <mxCell id="194" value="" style="shape=cube;whiteSpace=wrap;html=1;boundedLbl=1;backgroundOutline=1;darkOpacity=0.05;darkOpacity2=0.1;strokeColor=default;strokeWidth=3;fillColor=#FF8000;size=11;fontStyle=1" parent="1" vertex="1">
                    <mxGeometry x="404.34000000000015" y="693.7399999999998" width="29.5" height="30.82" as="geometry"/>
                </mxCell>
                <mxCell id="195" value="" style="shape=cube;whiteSpace=wrap;html=1;boundedLbl=1;backgroundOutline=1;darkOpacity=0.05;darkOpacity2=0.1;strokeColor=default;strokeWidth=3;fillColor=#FF8000;size=11;fontStyle=1" parent="1" vertex="1">
                    <mxGeometry x="424.0400000000001" y="673.7299999999998" width="29.5" height="30.82" as="geometry"/>
                </mxCell>
                <mxCell id="196" value="" style="shape=cube;whiteSpace=wrap;html=1;boundedLbl=1;backgroundOutline=1;darkOpacity=0.05;darkOpacity2=0.1;strokeColor=default;strokeWidth=3;fillColor=#FF8000;size=11;fontStyle=1" parent="1" vertex="1">
                    <mxGeometry x="404.34000000000015" y="673.7299999999998" width="29.5" height="30.82" as="geometry"/>
                </mxCell>
                <mxCell id="197" value="" style="shape=cube;whiteSpace=wrap;html=1;boundedLbl=1;backgroundOutline=1;darkOpacity=0.05;darkOpacity2=0.1;strokeColor=default;strokeWidth=3;fillColor=#FF8000;size=11;fontStyle=1" parent="1" vertex="1">
                    <mxGeometry x="434.55000000000007" y="704.5599999999998" width="29.5" height="30.82" as="geometry"/>
                </mxCell>
                <mxCell id="198" value="" style="shape=cube;whiteSpace=wrap;html=1;boundedLbl=1;backgroundOutline=1;darkOpacity=0.05;darkOpacity2=0.1;strokeColor=default;strokeWidth=3;fillColor=#FF8000;size=11;fontStyle=1" parent="1" vertex="1">
                    <mxGeometry x="414.8900000000001" y="704.5599999999998" width="29.5" height="30.82" as="geometry"/>
                </mxCell>
                <mxCell id="199" value="" style="shape=cube;whiteSpace=wrap;html=1;boundedLbl=1;backgroundOutline=1;darkOpacity=0.05;darkOpacity2=0.1;strokeColor=default;strokeWidth=3;fillColor=#FF8000;size=11;fontStyle=1" parent="1" vertex="1">
                    <mxGeometry x="434.59000000000003" y="684.5499999999998" width="29.5" height="30.82" as="geometry"/>
                </mxCell>
                <mxCell id="200" value="" style="shape=cube;whiteSpace=wrap;html=1;boundedLbl=1;backgroundOutline=1;darkOpacity=0.05;darkOpacity2=0.1;strokeColor=default;strokeWidth=3;fillColor=#FF8000;size=11;fontStyle=1" parent="1" vertex="1">
                    <mxGeometry x="414.8900000000001" y="684.5499999999998" width="29.5" height="30.82" as="geometry"/>
                </mxCell>
                <mxCell id="201" value="" style="shape=cube;whiteSpace=wrap;html=1;boundedLbl=1;backgroundOutline=1;darkOpacity=0.05;darkOpacity2=0.1;strokeColor=default;strokeWidth=3;fillColor=#990000;size=11;fontStyle=1" parent="1" vertex="1">
                    <mxGeometry x="488.0000000000001" y="683.3299999999998" width="29.5" height="30.82" as="geometry"/>
                </mxCell>
                <mxCell id="202" value="" style="shape=cube;whiteSpace=wrap;html=1;boundedLbl=1;backgroundOutline=1;darkOpacity=0.05;darkOpacity2=0.1;strokeColor=default;strokeWidth=3;fillColor=#990000;size=11;fontStyle=1" parent="1" vertex="1">
                    <mxGeometry x="468.34000000000015" y="683.3299999999998" width="29.5" height="30.82" as="geometry"/>
                </mxCell>
                <mxCell id="203" value="" style="shape=cube;whiteSpace=wrap;html=1;boundedLbl=1;backgroundOutline=1;darkOpacity=0.05;darkOpacity2=0.1;strokeColor=default;strokeWidth=3;fillColor=#990000;size=11;fontStyle=1" parent="1" vertex="1">
                    <mxGeometry x="488.0400000000001" y="663.3199999999998" width="29.5" height="30.82" as="geometry"/>
                </mxCell>
                <mxCell id="204" value="" style="shape=cube;whiteSpace=wrap;html=1;boundedLbl=1;backgroundOutline=1;darkOpacity=0.05;darkOpacity2=0.1;strokeColor=default;strokeWidth=3;fillColor=#990000;size=11;fontStyle=1" parent="1" vertex="1">
                    <mxGeometry x="468.34000000000015" y="663.3199999999998" width="29.5" height="30.82" as="geometry"/>
                </mxCell>
                <mxCell id="205" value="" style="shape=cube;whiteSpace=wrap;html=1;boundedLbl=1;backgroundOutline=1;darkOpacity=0.05;darkOpacity2=0.1;strokeColor=default;strokeWidth=3;fillColor=#990000;size=11;fontStyle=1" parent="1" vertex="1">
                    <mxGeometry x="498.0000000000001" y="693.3299999999998" width="29.5" height="30.82" as="geometry"/>
                </mxCell>
                <mxCell id="206" value="" style="shape=cube;whiteSpace=wrap;html=1;boundedLbl=1;backgroundOutline=1;darkOpacity=0.05;darkOpacity2=0.1;strokeColor=default;strokeWidth=3;fillColor=#990000;size=11;fontStyle=1" parent="1" vertex="1">
                    <mxGeometry x="478.34000000000015" y="693.3299999999998" width="29.5" height="30.82" as="geometry"/>
                </mxCell>
                <mxCell id="207" value="" style="shape=cube;whiteSpace=wrap;html=1;boundedLbl=1;backgroundOutline=1;darkOpacity=0.05;darkOpacity2=0.1;strokeColor=default;strokeWidth=3;fillColor=#990000;size=11;fontStyle=1" parent="1" vertex="1">
                    <mxGeometry x="498.0400000000001" y="673.3199999999998" width="29.5" height="30.82" as="geometry"/>
                </mxCell>
                <mxCell id="208" value="" style="shape=cube;whiteSpace=wrap;html=1;boundedLbl=1;backgroundOutline=1;darkOpacity=0.05;darkOpacity2=0.1;strokeColor=default;strokeWidth=3;fillColor=#990000;size=11;fontStyle=1" parent="1" vertex="1">
                    <mxGeometry x="478.34000000000015" y="673.3199999999998" width="29.5" height="30.82" as="geometry"/>
                </mxCell>
                <mxCell id="209" value="" style="shape=cube;whiteSpace=wrap;html=1;boundedLbl=1;backgroundOutline=1;darkOpacity=0.05;darkOpacity2=0.1;strokeColor=default;strokeWidth=3;fillColor=#990000;size=11;fontStyle=1" parent="1" vertex="1">
                    <mxGeometry x="508.55000000000007" y="704.1499999999999" width="29.5" height="30.82" as="geometry"/>
                </mxCell>
                <mxCell id="210" value="" style="shape=cube;whiteSpace=wrap;html=1;boundedLbl=1;backgroundOutline=1;darkOpacity=0.05;darkOpacity2=0.1;strokeColor=default;strokeWidth=3;fillColor=#990000;size=11;fontStyle=1" parent="1" vertex="1">
                    <mxGeometry x="488.8900000000001" y="704.1499999999999" width="29.5" height="30.82" as="geometry"/>
                </mxCell>
                <mxCell id="211" value="" style="shape=cube;whiteSpace=wrap;html=1;boundedLbl=1;backgroundOutline=1;darkOpacity=0.05;darkOpacity2=0.1;strokeColor=default;strokeWidth=3;fillColor=#990000;size=11;fontStyle=1" parent="1" vertex="1">
                    <mxGeometry x="508.59000000000003" y="684.1399999999999" width="29.5" height="30.82" as="geometry"/>
                </mxCell>
                <mxCell id="212" value="" style="shape=cube;whiteSpace=wrap;html=1;boundedLbl=1;backgroundOutline=1;darkOpacity=0.05;darkOpacity2=0.1;strokeColor=default;strokeWidth=3;fillColor=#990000;size=11;fontStyle=1" parent="1" vertex="1">
                    <mxGeometry x="488.8900000000001" y="684.1399999999999" width="29.5" height="30.82" as="geometry"/>
                </mxCell>
                <mxCell id="213" value="" style="shape=cube;whiteSpace=wrap;html=1;boundedLbl=1;backgroundOutline=1;darkOpacity=0.05;darkOpacity2=0.1;strokeColor=default;strokeWidth=3;fillColor=#FFD966;size=11;fontStyle=1" parent="1" vertex="1">
                    <mxGeometry x="562.9100000000002" y="683.3299999999998" width="29.5" height="30.82" as="geometry"/>
                </mxCell>
                <mxCell id="214" value="" style="shape=cube;whiteSpace=wrap;html=1;boundedLbl=1;backgroundOutline=1;darkOpacity=0.05;darkOpacity2=0.1;strokeColor=default;strokeWidth=3;fillColor=#FFD966;size=11;fontStyle=1" parent="1" vertex="1">
                    <mxGeometry x="543.2500000000002" y="683.3299999999998" width="29.5" height="30.82" as="geometry"/>
                </mxCell>
                <mxCell id="215" value="" style="shape=cube;whiteSpace=wrap;html=1;boundedLbl=1;backgroundOutline=1;darkOpacity=0.05;darkOpacity2=0.1;strokeColor=default;strokeWidth=3;fillColor=#FFD966;size=11;fontStyle=1" parent="1" vertex="1">
                    <mxGeometry x="562.9500000000002" y="663.3199999999998" width="29.5" height="30.82" as="geometry"/>
                </mxCell>
                <mxCell id="216" value="" style="shape=cube;whiteSpace=wrap;html=1;boundedLbl=1;backgroundOutline=1;darkOpacity=0.05;darkOpacity2=0.1;strokeColor=default;strokeWidth=3;fillColor=#FFD966;size=11;fontStyle=1" parent="1" vertex="1">
                    <mxGeometry x="543.2500000000002" y="663.3199999999998" width="29.5" height="30.82" as="geometry"/>
                </mxCell>
                <mxCell id="217" value="" style="shape=cube;whiteSpace=wrap;html=1;boundedLbl=1;backgroundOutline=1;darkOpacity=0.05;darkOpacity2=0.1;strokeColor=default;strokeWidth=3;fillColor=#FFD966;size=11;fontStyle=1" parent="1" vertex="1">
                    <mxGeometry x="572.9100000000002" y="693.3299999999998" width="29.5" height="30.82" as="geometry"/>
                </mxCell>
                <mxCell id="218" value="" style="shape=cube;whiteSpace=wrap;html=1;boundedLbl=1;backgroundOutline=1;darkOpacity=0.05;darkOpacity2=0.1;strokeColor=default;strokeWidth=3;fillColor=#FFD966;size=11;fontStyle=1" parent="1" vertex="1">
                    <mxGeometry x="553.2500000000002" y="693.3299999999998" width="29.5" height="30.82" as="geometry"/>
                </mxCell>
                <mxCell id="219" value="" style="shape=cube;whiteSpace=wrap;html=1;boundedLbl=1;backgroundOutline=1;darkOpacity=0.05;darkOpacity2=0.1;strokeColor=default;strokeWidth=3;fillColor=#FFD966;size=11;fontStyle=1" parent="1" vertex="1">
                    <mxGeometry x="572.9500000000002" y="673.3199999999998" width="29.5" height="30.82" as="geometry"/>
                </mxCell>
                <mxCell id="220" value="" style="shape=cube;whiteSpace=wrap;html=1;boundedLbl=1;backgroundOutline=1;darkOpacity=0.05;darkOpacity2=0.1;strokeColor=default;strokeWidth=3;fillColor=#FFD966;size=11;fontStyle=1" parent="1" vertex="1">
                    <mxGeometry x="553.2500000000002" y="673.3199999999998" width="29.5" height="30.82" as="geometry"/>
                </mxCell>
                <mxCell id="221" value="" style="shape=cube;whiteSpace=wrap;html=1;boundedLbl=1;backgroundOutline=1;darkOpacity=0.05;darkOpacity2=0.1;strokeColor=default;strokeWidth=3;fillColor=#FFD966;size=11;fontStyle=1" parent="1" vertex="1">
                    <mxGeometry x="583.4600000000002" y="704.1499999999999" width="29.5" height="30.82" as="geometry"/>
                </mxCell>
                <mxCell id="222" value="" style="shape=cube;whiteSpace=wrap;html=1;boundedLbl=1;backgroundOutline=1;darkOpacity=0.05;darkOpacity2=0.1;strokeColor=default;strokeWidth=3;fillColor=#FFD966;size=11;fontStyle=1" parent="1" vertex="1">
                    <mxGeometry x="563.8000000000002" y="704.1499999999999" width="29.5" height="30.82" as="geometry"/>
                </mxCell>
                <mxCell id="223" value="" style="shape=cube;whiteSpace=wrap;html=1;boundedLbl=1;backgroundOutline=1;darkOpacity=0.05;darkOpacity2=0.1;strokeColor=default;strokeWidth=3;fillColor=#FFD966;size=11;fontStyle=1" parent="1" vertex="1">
                    <mxGeometry x="583.5000000000001" y="684.1399999999999" width="29.5" height="30.82" as="geometry"/>
                </mxCell>
                <mxCell id="224" value="" style="shape=cube;whiteSpace=wrap;html=1;boundedLbl=1;backgroundOutline=1;darkOpacity=0.05;darkOpacity2=0.1;strokeColor=default;strokeWidth=3;fillColor=#FFD966;size=11;fontStyle=1" parent="1" vertex="1">
                    <mxGeometry x="563.8000000000002" y="684.1399999999999" width="29.5" height="30.82" as="geometry"/>
                </mxCell>
                <mxCell id="225" value="" style="shape=cube;whiteSpace=wrap;html=1;boundedLbl=1;backgroundOutline=1;darkOpacity=0.05;darkOpacity2=0.1;strokeColor=default;strokeWidth=3;fillColor=#000066;size=11;fontStyle=1" parent="1" vertex="1">
                    <mxGeometry x="636.9100000000002" y="682.9199999999998" width="29.5" height="30.82" as="geometry"/>
                </mxCell>
                <mxCell id="226" value="" style="shape=cube;whiteSpace=wrap;html=1;boundedLbl=1;backgroundOutline=1;darkOpacity=0.05;darkOpacity2=0.1;strokeColor=default;strokeWidth=3;fillColor=#000066;size=11;fontStyle=1" parent="1" vertex="1">
                    <mxGeometry x="617.2500000000002" y="682.9199999999998" width="29.5" height="30.82" as="geometry"/>
                </mxCell>
                <mxCell id="227" value="" style="shape=cube;whiteSpace=wrap;html=1;boundedLbl=1;backgroundOutline=1;darkOpacity=0.05;darkOpacity2=0.1;strokeColor=default;strokeWidth=3;fillColor=#000066;size=11;fontStyle=1" parent="1" vertex="1">
                    <mxGeometry x="636.9500000000002" y="662.9099999999999" width="29.5" height="30.82" as="geometry"/>
                </mxCell>
                <mxCell id="228" value="" style="shape=cube;whiteSpace=wrap;html=1;boundedLbl=1;backgroundOutline=1;darkOpacity=0.05;darkOpacity2=0.1;strokeColor=default;strokeWidth=3;fillColor=#000066;size=11;fontStyle=1" parent="1" vertex="1">
                    <mxGeometry x="617.2500000000002" y="662.9099999999999" width="29.5" height="30.82" as="geometry"/>
                </mxCell>
                <mxCell id="229" value="" style="shape=cube;whiteSpace=wrap;html=1;boundedLbl=1;backgroundOutline=1;darkOpacity=0.05;darkOpacity2=0.1;strokeColor=default;strokeWidth=3;fillColor=#000066;size=11;fontStyle=1" parent="1" vertex="1">
                    <mxGeometry x="646.9100000000002" y="692.9199999999998" width="29.5" height="30.82" as="geometry"/>
                </mxCell>
                <mxCell id="230" value="" style="shape=cube;whiteSpace=wrap;html=1;boundedLbl=1;backgroundOutline=1;darkOpacity=0.05;darkOpacity2=0.1;strokeColor=default;strokeWidth=3;fillColor=#000066;size=11;fontStyle=1" parent="1" vertex="1">
                    <mxGeometry x="627.2500000000002" y="692.9199999999998" width="29.5" height="30.82" as="geometry"/>
                </mxCell>
                <mxCell id="231" value="" style="shape=cube;whiteSpace=wrap;html=1;boundedLbl=1;backgroundOutline=1;darkOpacity=0.05;darkOpacity2=0.1;strokeColor=default;strokeWidth=3;fillColor=#000066;size=11;fontStyle=1" parent="1" vertex="1">
                    <mxGeometry x="646.9500000000002" y="672.9099999999999" width="29.5" height="30.82" as="geometry"/>
                </mxCell>
                <mxCell id="232" value="" style="shape=cube;whiteSpace=wrap;html=1;boundedLbl=1;backgroundOutline=1;darkOpacity=0.05;darkOpacity2=0.1;strokeColor=default;strokeWidth=3;fillColor=#000066;size=11;fontStyle=1" parent="1" vertex="1">
                    <mxGeometry x="627.2500000000002" y="672.9099999999999" width="29.5" height="30.82" as="geometry"/>
                </mxCell>
                <mxCell id="233" value="" style="shape=cube;whiteSpace=wrap;html=1;boundedLbl=1;backgroundOutline=1;darkOpacity=0.05;darkOpacity2=0.1;strokeColor=default;strokeWidth=3;fillColor=#000066;size=11;fontStyle=1" parent="1" vertex="1">
                    <mxGeometry x="657.4600000000002" y="703.7399999999999" width="29.5" height="30.82" as="geometry"/>
                </mxCell>
                <mxCell id="234" value="" style="shape=cube;whiteSpace=wrap;html=1;boundedLbl=1;backgroundOutline=1;darkOpacity=0.05;darkOpacity2=0.1;strokeColor=default;strokeWidth=3;fillColor=#000066;size=11;fontStyle=1" parent="1" vertex="1">
                    <mxGeometry x="637.8000000000002" y="703.7399999999999" width="29.5" height="30.82" as="geometry"/>
                </mxCell>
                <mxCell id="235" value="" style="shape=cube;whiteSpace=wrap;html=1;boundedLbl=1;backgroundOutline=1;darkOpacity=0.05;darkOpacity2=0.1;strokeColor=default;strokeWidth=3;fillColor=#000066;size=11;fontStyle=1" parent="1" vertex="1">
                    <mxGeometry x="657.5000000000001" y="683.7299999999999" width="29.5" height="30.82" as="geometry"/>
                </mxCell>
                <mxCell id="236" value="" style="shape=cube;whiteSpace=wrap;html=1;boundedLbl=1;backgroundOutline=1;darkOpacity=0.05;darkOpacity2=0.1;strokeColor=default;strokeWidth=3;fillColor=#000066;size=11;fontStyle=1" parent="1" vertex="1">
                    <mxGeometry x="637.8000000000002" y="683.7299999999999" width="29.5" height="30.82" as="geometry"/>
                </mxCell>
                <mxCell id="237" value="" style="endArrow=classic;html=1;strokeColor=#990000;strokeWidth=6;fontStyle=1" parent="1" edge="1">
                    <mxGeometry width="50" height="50" relative="1" as="geometry">
                        <mxPoint x="432" y="642" as="sourcePoint"/>
                        <mxPoint x="432.31999999999994" y="587" as="targetPoint"/>
                    </mxGeometry>
                </mxCell>
                <mxCell id="238" value="Reshape" style="text;html=1;strokeColor=none;fillColor=none;align=center;verticalAlign=middle;whiteSpace=wrap;rounded=0;fontStyle=1" parent="1" vertex="1">
                    <mxGeometry x="361.94" y="592" width="52.95" height="30" as="geometry"/>
                </mxCell>
                <mxCell id="239" value="" style="shape=curlyBracket;whiteSpace=wrap;html=1;rounded=1;strokeColor=#000000;strokeWidth=3;fillColor=none;rotation=0;fontStyle=1" parent="1" vertex="1">
                    <mxGeometry x="143" y="658.98" width="20" height="139.53" as="geometry"/>
                </mxCell>
                <mxCell id="240" value="Weight Tensor" style="text;html=1;strokeColor=none;fillColor=none;align=center;verticalAlign=middle;whiteSpace=wrap;rounded=0;fontStyle=1" parent="1" vertex="1">
                    <mxGeometry x="93.43" y="714.7599999999999" width="34.14" height="30" as="geometry"/>
                </mxCell>
            </root>
        </mxGraphModel>
    </diagram>
</mxfile>